<svg width="60" height="60" viewBox="0 0 60 60" fill="none" xmlns="http://www.w3.org/2000/svg">
<circle cx="30" cy="30" r="30" fill="#FF4371"/>
<path d="M18.6471 48V34.5H16V24.6C16 23.61 16.3456 22.7625 17.0368 22.0575C17.7279 21.3525 18.5588 21 19.5294 21H24.8235C25.7941 21 26.625 21.3525 27.3162 22.0575C28.0074 22.7625 28.3529 23.61 28.3529 24.6V34.5H25.7059V48H18.6471ZM19.6838 18.1425C18.9926 17.4375 18.6471 16.59 18.6471 15.6C18.6471 14.61 18.9926 13.7625 19.6838 13.0575C20.375 12.3525 21.2059 12 22.1765 12C23.1471 12 23.9779 12.3525 24.6691 13.0575C25.3603 13.7625 25.7059 14.61 25.7059 15.6C25.7059 16.59 25.3603 17.4375 24.6691 18.1425C23.9779 18.8475 23.1471 19.2 22.1765 19.2C21.2059 19.2 20.375 18.8475 19.6838 18.1425ZM35.4118 48V37.2H30.1176L34.6176 23.43C34.8529 22.65 35.2868 22.05 35.9191 21.63C36.5515 21.21 37.2647 21 38.0588 21C38.8529 21 39.5662 21.21 40.1985 21.63C40.8309 22.05 41.2647 22.65 41.5 23.43L46 37.2H40.7059V48H35.4118ZM35.5662 18.1425C34.875 17.4375 34.5294 16.59 34.5294 15.6C34.5294 14.61 34.875 13.7625 35.5662 13.0575C36.2574 12.3525 37.0882 12 38.0588 12C39.0294 12 39.8603 12.3525 40.5515 13.0575C41.2426 13.7625 41.5882 14.61 41.5882 15.6C41.5882 16.59 41.2426 17.4375 40.5515 18.1425C39.8603 18.8475 39.0294 19.2 38.0588 19.2C37.0882 19.2 36.2574 18.8475 35.5662 18.1425Z" fill="black"/>
</svg>
