<svg width="754" height="640" viewBox="0 0 754 640" fill="none" xmlns="http://www.w3.org/2000/svg">
<rect width="754" height="640" fill="white"/>
<path d="M452.221 537.875H738V466.438M452.221 537.875H347.152M452.221 537.875V513.278M452.221 466.438H738M452.221 466.438H347.152M452.221 466.438V488.681M738 466.438V353.721M347.152 427.511V466.438H738M166.442 466.438V537.875H248.75M166.442 466.438H17V410.828M166.442 466.438H279.558M17 410.828H166.442V388.584M17 410.828V320.569H166.442M166.442 320.569V241.005M166.442 320.569V354.577V193.951V220.472M248.75 537.875H297.951M248.75 537.875V543.008M347.152 537.875H297.951M347.152 537.875V543.008M297.951 537.875V623M297.951 623H248.75V618.936M297.951 623H347.152V618.936M248.75 548.141H347.152M248.75 548.141V553.488M248.75 548.141V543.008M347.152 548.141V553.488M347.152 548.141V543.008M347.152 558.835H248.75M347.152 558.835V564.396M347.152 558.835V553.488M248.75 558.835V564.396M248.75 558.835V553.488M248.75 569.957H347.152M248.75 569.957V564.396M248.75 569.957V574.662M347.152 569.957V564.396M347.152 569.957V574.662M347.152 579.368H248.75M347.152 579.368V574.662M347.152 579.368V584.287M248.75 579.368V574.662M248.75 579.368V584.287M248.75 589.206H347.152M248.75 589.206V584.287M248.75 589.206V594.126M347.152 589.206V584.287M347.152 589.206V594.126M347.152 599.045H248.75M347.152 599.045V594.126M347.152 599.045V602.895M248.75 599.045V594.126M248.75 599.045V602.895M248.75 606.745H347.152M248.75 606.745V602.895M248.75 606.745V610.809M347.152 606.745V602.895M347.152 606.745V610.809M347.152 614.872H248.75M347.152 614.872V610.809M347.152 614.872V618.936M248.75 614.872V610.809M248.75 614.872V618.936M248.75 564.396H347.152M347.152 553.488H248.75M248.75 543.008H347.152M347.152 574.662H248.75M248.75 584.287H347.152M347.152 594.126H248.75M248.75 602.895H347.152M347.152 610.809H248.75M248.75 618.936H347.152M347.152 241.005H239.094M347.152 241.005V280.787M347.152 241.005H416.585M347.152 241.005V224.322M166.442 241.005H201.388M166.442 241.005V220.472M347.152 353.721H738M347.152 353.721V388.584M347.152 353.721V320.569M738 353.721V241.005M738 241.005H416.585M738 241.005V183.684M166.442 220.472H17V126.364H166.442M166.442 126.364V16H347.152V126.364M166.442 126.364V160.157M166.442 126.364H239.094M347.152 126.364V183.684M347.152 126.364H416.585M347.152 126.364H293.123M347.152 126.364V207.639V183.684M347.152 183.684H372.442M416.585 183.684H738M416.585 183.684H394.513M416.585 183.684V169.14M416.585 183.684V207.639M416.585 241.005V224.322M416.585 126.364H738V183.684M416.585 126.364V147.752" stroke="black" stroke-width="2"/>
<path d="M347 540H249V545.542H347V551.084H249V555.774H347V560.889H249V566.858H347V571.547H249V576.237H347V580.5V583.058H249V586.895H347V591.584H249V596.7H347V600.963H249V603.947H347V609.063H249V612.474H347V617.163H249V621H347" stroke="black" stroke-opacity="0.5" stroke-width="3"/>
<rect x="69" y="160" width="43" height="28" fill="#FF80D2"/>
<path d="M73.4049 177.648V175.904L78.6849 168.8H81.4049L76.2369 175.904L74.9729 175.536H83.7889V177.648H73.4049ZM79.4369 180V177.648L79.5169 175.536V173.44H81.9649V180H79.4369ZM89.3642 180.192C88.4469 180.192 87.6255 179.968 86.9002 179.52C86.1749 179.061 85.6042 178.4 85.1882 177.536C84.7722 176.672 84.5642 175.627 84.5642 174.4C84.5642 173.173 84.7722 172.128 85.1882 171.264C85.6042 170.4 86.1749 169.744 86.9002 169.296C87.6255 168.837 88.4469 168.608 89.3642 168.608C90.2922 168.608 91.1135 168.837 91.8282 169.296C92.5535 169.744 93.1242 170.4 93.5402 171.264C93.9562 172.128 94.1642 173.173 94.1642 174.4C94.1642 175.627 93.9562 176.672 93.5402 177.536C93.1242 178.4 92.5535 179.061 91.8282 179.52C91.1135 179.968 90.2922 180.192 89.3642 180.192ZM89.3642 178C89.8015 178 90.1802 177.877 90.5002 177.632C90.8309 177.387 91.0869 176.997 91.2682 176.464C91.4602 175.931 91.5562 175.243 91.5562 174.4C91.5562 173.557 91.4602 172.869 91.2682 172.336C91.0869 171.803 90.8309 171.413 90.5002 171.168C90.1802 170.923 89.8015 170.8 89.3642 170.8C88.9375 170.8 88.5589 170.923 88.2282 171.168C87.9082 171.413 87.6522 171.803 87.4602 172.336C87.2789 172.869 87.1882 173.557 87.1882 174.4C87.1882 175.243 87.2789 175.931 87.4602 176.464C87.6522 176.997 87.9082 177.387 88.2282 177.632C88.5589 177.877 88.9375 178 89.3642 178ZM95.2651 180V178.32L99.5851 174.24C99.9264 173.931 100.177 173.653 100.337 173.408C100.497 173.163 100.604 172.939 100.657 172.736C100.721 172.533 100.753 172.347 100.753 172.176C100.753 171.728 100.598 171.387 100.289 171.152C99.9904 170.907 99.5477 170.784 98.9611 170.784C98.4917 170.784 98.0544 170.875 97.6491 171.056C97.2544 171.237 96.9184 171.52 96.6411 171.904L94.7531 170.688C95.1797 170.048 95.7771 169.541 96.5451 169.168C97.3131 168.795 98.1984 168.608 99.2011 168.608C100.033 168.608 100.758 168.747 101.377 169.024C102.006 169.291 102.492 169.669 102.833 170.16C103.185 170.651 103.361 171.237 103.361 171.92C103.361 172.283 103.313 172.645 103.217 173.008C103.132 173.36 102.95 173.733 102.673 174.128C102.406 174.523 102.012 174.965 101.489 175.456L97.9051 178.832L97.4091 177.888H103.729V180H95.2651Z" fill="black"/>
<rect x="189" y="478" width="247" height="41" fill="#FF80D2"/>
<rect x="174" y="262" width="163" height="155" fill="#FF80D2"/>
<rect x="174" y="131" width="163" height="98" fill="#FF80D2"/>
<rect x="26" y="417" width="311" height="41" fill="#FF80D2"/>
<rect x="233" y="58" width="45" height="28" fill="#FF80D2"/>
<path d="M239.496 75.648V73.904L244.776 66.8H247.496L242.328 73.904L241.064 73.536H249.88V75.648H239.496ZM245.528 78V75.648L245.608 73.536V71.44H248.056V78H245.528ZM255.455 78.192C254.538 78.192 253.717 77.968 252.991 77.52C252.266 77.0613 251.695 76.4 251.279 75.536C250.863 74.672 250.655 73.6267 250.655 72.4C250.655 71.1733 250.863 70.128 251.279 69.264C251.695 68.4 252.266 67.744 252.991 67.296C253.717 66.8373 254.538 66.608 255.455 66.608C256.383 66.608 257.205 66.8373 257.919 67.296C258.645 67.744 259.215 68.4 259.631 69.264C260.047 70.128 260.255 71.1733 260.255 72.4C260.255 73.6267 260.047 74.672 259.631 75.536C259.215 76.4 258.645 77.0613 257.919 77.52C257.205 77.968 256.383 78.192 255.455 78.192ZM255.455 76C255.893 76 256.271 75.8773 256.591 75.632C256.922 75.3867 257.178 74.9973 257.359 74.464C257.551 73.9307 257.647 73.2427 257.647 72.4C257.647 71.5573 257.551 70.8693 257.359 70.336C257.178 69.8027 256.922 69.4133 256.591 69.168C256.271 68.9227 255.893 68.8 255.455 68.8C255.029 68.8 254.65 68.9227 254.319 69.168C253.999 69.4133 253.743 69.8027 253.551 70.336C253.37 70.8693 253.279 71.5573 253.279 72.4C253.279 73.2427 253.37 73.9307 253.551 74.464C253.743 74.9973 253.999 75.3867 254.319 75.632C254.65 75.8773 255.029 76 255.455 76ZM264.99 78.192C264.212 78.192 263.438 78.0907 262.67 77.888C261.902 77.6747 261.252 77.376 260.718 76.992L261.726 75.008C262.153 75.3173 262.649 75.5627 263.214 75.744C263.78 75.9253 264.35 76.016 264.926 76.016C265.577 76.016 266.089 75.888 266.462 75.632C266.836 75.376 267.022 75.024 267.022 74.576C267.022 74.1493 266.857 73.8133 266.526 73.568C266.196 73.3227 265.662 73.2 264.926 73.2H263.742V71.488L266.862 67.952L267.15 68.88H261.278V66.8H269.118V68.48L266.014 72.016L264.702 71.264H265.454C266.83 71.264 267.87 71.5733 268.574 72.192C269.278 72.8107 269.63 73.6053 269.63 74.576C269.63 75.2053 269.465 75.7973 269.134 76.352C268.804 76.896 268.297 77.3387 267.614 77.68C266.932 78.0213 266.057 78.192 264.99 78.192Z" fill="black"/>
</svg>
