<svg width="754" height="640" viewBox="0 0 754 640" fill="none" xmlns="http://www.w3.org/2000/svg">
<rect width="754" height="640" fill="white"/>
<path d="M246 299V385" stroke="black"/>
<path d="M198.432 189.598H213.084H214M147.605 189.598H186.068H110.058V181.207V243.203H116.468M120.132 243.203H126.084M129.289 243.203H126.084M126.084 243.203V227.355M126.084 216.167V227.355M126.084 227.355H147.605M147.605 227.355V216.167M147.605 227.355V243.203M110.058 171.418V163.96H147.605V216.167M138.447 190.064V203.116M138.447 211.506V216.167H147.147H147.605M147.605 246V243.203M147.605 243.203H136.616M73.4263 165.825H78.0053M82.5842 165.825H78.0053M78.0053 165.825V189.598M78.0053 189.598H99.9842M78.0053 189.598H40M91.7421 165.825H99.9842V189.598M99.9842 189.598V198.454V165.825M62.4368 129V152.307H74.3421M77.0895 152.307H74.3421M74.3421 152.307V148.578M74.3421 141.12V129H92.2V152.307H100.9H85.3316M107.311 152.773H114.637V129" stroke="black"/>
<path d="M213 130V190" stroke="black" stroke-width="2"/>
<path d="M187 35H213V39H187" stroke="black"/>
<path d="M147.591 388.925V305.826M147.591 305.826H118.267V298.356H114.601M147.591 305.826V284.351M108.187 298.356H99.9393V295.088M99.9393 284.818V271.279M99.9393 240V246.069M99.9393 246.069H39V271.279H99.9393M99.9393 246.069V271.279M109.103 284.351H121.016M147.591 284.351V254.006M147.591 284.351H137.053M137.053 284.351V258.207H140.718H132.013M137.053 284.351H129.034H121.016M109.103 258.207H121.016M125.598 258.207H121.016M121.016 258.207V284.351M378.977 372.586H396.388V374.453M422.047 374.453V372.586H439V374.453H422.047ZM422.047 374.453V376.32M422.047 376.32H439V378.188H422.047M422.047 376.32V377.254M422.047 378.188V379.122M422.047 378.188V377.254M422.047 380.055H439V381.923H422.047M422.047 380.055V380.989M422.047 380.055V379.122M422.047 381.923V382.856M422.047 381.923V380.989M422.047 383.79H439V385.657H422.047M422.047 383.79V384.724M422.047 383.79V382.856M422.047 385.657V386.591M422.047 385.657V384.724M422.047 387.525H439V389.392H422.047M422.047 387.525V388.459M422.047 387.525V386.591M422.047 389.392V390.326M422.047 389.392V388.459M422.047 391.26H439V393.127H422.047M422.047 391.26V392.193M422.047 391.26V390.326M422.047 393.127V394.061M422.047 393.127V392.193M422.047 394.994H439V396.862H422.047M422.047 394.994V395.928M422.047 394.994V394.061M422.047 396.862V397.796M422.047 396.862V395.928M422.047 398.729H439V400.597H422.047M422.047 398.729V399.663M422.047 398.729V397.796M422.047 400.597V401.53M422.047 400.597V399.663M422.047 402.464H439M422.047 402.464V403.398M422.047 402.464V401.53M422.047 407.133V409H396.388V407.133M422.047 407.133H396.388M422.047 407.133V405.265M396.388 407.133V405.265M396.388 405.265H422.047M396.388 405.265V403.398M422.047 405.265V403.398M396.388 403.398H422.047M396.388 403.398V402.464M396.388 401.53H422.047M396.388 401.53V402.464M396.388 401.53V400.597M422.047 399.663H396.388M396.388 399.663V400.597M396.388 399.663V398.729M396.388 397.796H422.047M396.388 397.796V398.729M396.388 397.796V396.862M422.047 395.928H396.388M396.388 395.928V396.862M396.388 395.928V394.994M396.388 394.061H422.047M396.388 394.061V394.994M396.388 394.061V393.127M422.047 392.193H396.388M396.388 392.193V393.127M396.388 392.193V391.26M396.388 390.326H422.047M396.388 390.326V391.26M396.388 390.326V389.392M422.047 388.459H396.388M396.388 388.459V389.392M396.388 388.459V387.525M396.388 386.591H422.047M396.388 386.591V387.525M396.388 386.591V385.657M422.047 384.724H396.388M396.388 384.724V385.657M396.388 384.724V383.79M396.388 382.856H422.047M396.388 382.856V383.79M396.388 382.856V381.923M422.047 380.989H396.388M396.388 380.989V381.923M396.388 380.989V380.055M396.388 379.122H422.047M396.388 379.122V380.055M396.388 379.122V378.188M422.047 377.254H396.388M396.388 377.254V378.188M396.388 377.254V376.32M396.388 402.464H378.519V400.597H396.388M396.388 398.729H378.519V396.862H396.388M396.388 394.994H378.519V393.127H396.388M378.519 391.26H396.388M378.519 389.392H396.388M378.519 387.525H396.388M396.388 385.657H378.519V383.79H396.388M396.388 381.923H378.519V380.055H396.388M396.388 378.188H378.519V376.32H396.388M396.388 376.32V374.453M378.519 374.453H396.388" stroke="black"/>
<path d="M602.665 12.9237V44.3312M614.111 76.2004H594.881H602.665V44.3312M585.723 76.2004H574.277V44.3312M574.277 27.7037V32.3224M574.277 44.3312H586.181M574.277 44.3312V32.3224M597.17 44.3312H602.665M573.819 75.7386H546.347V105.298M546.347 114.536V105.298M546.347 105.298H539.479M519.332 105.298H522.079M528.49 105.298H522.079M522.079 105.298V51.2593H509.717M492.776 12L492.318 51.2593V105.298M492.318 51.2593H509.717M492.318 106.222V105.298M492.318 105.298H512.922M483.841 105.298H459.351V131.625M546.804 12L546.657 32.3224M546.657 32.3224L546.52 51.2593L546.465 58.9379L546.347 75.2767M546.52 51.2593H534.442H560.083M573.819 51.2593H560.083M560.083 51.2593V47.3333M546.657 32.3224H560.083V36.0174M574.277 32.3224H560.541M560.541 36.0174H573.819H560.083M547.262 36.0174H560.083M560.083 36.0174V39.7124M560.083 39.7124H573.819H547.262H560.083ZM560.083 39.7124V43.4074M560.083 43.4074H547.262H573.819H560.083ZM560.083 43.4074V47.3333M560.083 47.3333H573.819H560.312M546.804 47.3333H560.312M560.312 47.3333L560.197 55.0697M560.197 55.0697H573.819M560.197 55.0697H546.804M560.197 55.0697L560.14 58.9379M560.14 58.9379L560.083 62.8061L560.142 58.9379M560.14 58.9379H573.819H560.142M546.465 58.9379H560.142M573.819 62.8061H546.657M509.717 51.2593L510.175 72.9673V92.366H492.776M510.175 72.9673H492.776M623.727 75.7386H724M634.715 76.2004C634.715 76.9394 634.715 102.373 634.715 114.998M634.715 123.773V133.011M634.715 133.011V137.63M634.715 133.011H723.696M634.715 146.405V182.893M634.715 224V182.893M634.715 182.893H723.542M459.351 131.625H436M459.351 131.625H488.197M494.607 131.625H512.006" stroke="black"/>
<path d="M211.887 15H185.38V78.3471H213.258V29.334L212.971 129.672L212.801 189.32M211.43 129.21H39.1357V291.97M39.1357 303.067V291.97M39.1357 291.97H14V277.174V321.563M14 340.521V411.266H38.6787V369.189V468.602H212.344M226.968 468.602H212.344M212.344 468.602V522.239M212.344 528.25V522.239M212.344 522.239H202.29M195.891 522.239H191.321V585.123M519 588.36C469.756 641.457 431.025 644.096 379.611 586.973" stroke="black"/>
<path d="M378.543 354.402L378.086 404H334.665V194.485V193.558H379V10H231.368M222.227 10H214V17.4165" stroke="black" stroke-width="2"/>
<line x1="436" y1="11" x2="551" y2="11" stroke="black" stroke-width="2"/>
<line x1="597" y1="10.5" x2="725" y2="10.5" stroke="white"/>
<line x1="724" y1="12" x2="724" y2="589" stroke="black" stroke-width="2"/>
<line x1="722" y1="588" x2="458" y2="588" stroke="black" stroke-width="2"/>
<line x1="433" y1="587" x2="443" y2="587" stroke="black" stroke-width="2"/>
<line x1="191" y1="587" x2="417" y2="587" stroke="black" stroke-width="2"/>
<line x1="597" y1="12" x2="725" y2="12" stroke="black" stroke-width="2"/>
<line x1="565" y1="11.5" x2="586" y2="11.5" stroke="black"/>
<line x1="574.5" y1="11" x2="574.5" y2="21" stroke="black"/>
<line x1="436" y1="10" x2="436" y2="194" stroke="black" stroke-width="2"/>
<line x1="435" y1="194" x2="543" y2="194" stroke="black" stroke-width="2"/>
<line x1="542" y1="194" x2="542" y2="408" stroke="black" stroke-width="2"/>
<line x1="543" y1="408" x2="439" y2="408" stroke="black" stroke-width="2"/>
<line x1="439" y1="353" x2="439" y2="409" stroke="black" stroke-width="2"/>
<path d="M378 353H400" stroke="black" stroke-width="2"/>
<path d="M418 353H439" stroke="black" stroke-width="2"/>
<path d="M633.891 234.341V244.073M633.891 251.024V244.073M633.891 244.073H723M633.891 261.683V331.195M633.891 344.171V352.976M633.891 352.976H723M633.891 352.976V393.756M633.891 404.415V411.829M633.891 454V411.829M633.891 411.829L723 412.293M633.891 462.805V472.073H622.923H723M656.739 473V480.878M656.739 486.902V494.78M656.739 533.707V527.22M656.739 527.22H651.256H723H656.739ZM656.739 527.22V494.78M656.739 494.78H664.051M673.19 494.78H723M656.739 543.439V554.561M656.739 560.122V554.561M656.739 554.561H723M656.739 577.732V586.537M625.665 586.537V555.488H622.923H633.434V527.22H640.288H622.923M613.327 527.22H604.645M593.22 527.22H604.645M604.645 527.22V531.854M604.645 586.537V564.756M604.645 555.488H611.042M604.645 555.488V557.341M604.645 555.488V553.634M604.645 542.512V538.805H588.194M604.645 542.512H572.657M604.645 542.512V546.22M572.657 542.512V538.805H588.194M572.657 542.512V546.22M588.194 538.805V561.049M588.194 568.927V568.463M588.194 568.463H604.188H573.114H572.657M588.194 568.463V564.756M572.657 568.463V564.756M572.657 568.463V587V526.756H585.909H563.974M572.657 564.756H588.194M572.657 564.756V561.049M588.194 564.756H604.645M588.194 564.756V561.049M604.645 564.756V561.049M588.194 561.049H604.645M588.194 561.049H572.657M604.645 561.049V557.341M572.657 561.049V557.341M572.657 557.341H604.645M572.657 557.341V553.634M604.645 553.634H572.657M604.645 553.634V549.927M572.657 553.634V549.927M604.645 549.927H572.657M604.645 549.927V546.22M572.657 549.927V546.22M604.645 546.22H572.657M557.577 527.22H539.298M522.847 527.22H539.298M539.298 527.22V586.537M501.826 527.22H464.355V497.561L463.898 586.537M464.355 478.561V471.61M464.355 409.049V471.61M464.355 471.61H473.951M613.327 472.073L601.446 472.031L482.633 471.61M601.446 472.031V428.049M601.446 416.927V408.122M601.446 396.537V408.122M601.446 408.122H541.126V375.22H585.452M595.962 375.22H601.446V384.488V327.951M601.446 320.073V327.951M601.446 327.951H541.126V297.366M601.446 297.366V308.488L601.903 273.963M601.903 271.878V276.049V261.22M542.04 243.61H601.903M601.903 243.61V248.244V233.415V243.61ZM517.82 131H511.423V192.634M192.457 538.805H213.021V542.512M213.021 568.463H202.053M213.021 568.463V564.756M213.021 568.463V585.61M192.457 568.463H202.053M202.053 568.463V549.927M202.053 539.268V542.512M202.053 542.512H213.021M202.053 542.512H192.457M202.053 542.512V546.22M213.021 542.512V546.22M192.457 546.22H202.053M202.053 546.22H213.021M202.053 546.22V549.927M213.021 546.22V549.927M202.053 549.927H213.021M202.053 549.927H192M213.021 549.927V553.634M192.457 553.634H213.021M213.021 553.634V557.341M192.457 557.341H212.564H213.021M213.021 557.341V561.049M213.021 561.049H192.457H192V564.756H213.021M213.021 561.049V564.756M234.041 526.293H244.095M254.148 526.293H244.095M244.095 526.293V585.61V586.537H276.54M276.54 586.537V526.293M276.54 586.537H355.596V526.756M276.54 526.293H279.738H263.287H276.54ZM355.596 526.756H291.62M355.596 526.756V501.268M356.052 486.439V469.293M304.415 469.293H334.575H327.72V404.415H356.052V469.293M345.999 469.293H356.052M290.706 468.829L275.169 468.965M237.697 469.293L244.095 469.237L275.169 468.965M244.095 402.098V408.122H275.169V411.366M275.169 468.965V440.098M275.169 440.098H244.095M275.169 440.098V411.366M244.095 440.098V423.415M244.095 440.098V449.366M275.169 411.366H327.263M244.095 468.829V459.098" stroke="black"/>
<path d="M601 217V210" stroke="black"/>
<path d="M557.383 131V143.551M557.383 131H534M557.383 131H596.503V162.611M541.644 217V193.757H549.738V162.611H557.383M557.383 162.611V152.849M557.383 162.611H596.503M596.503 162.611H601V194.686" stroke="black"/>
<path d="M601 217V225" stroke="black"/>
<path d="M243 409V417" stroke="black"/>
<path d="M217 468V408H203" stroke="black"/>
<path d="M193 409H190V468" stroke="black"/>
<path d="M190 416H147V402.324V401" stroke="black"/>
<path d="M174 417V452.286M174 452.286V467.607V469V452.286Z" stroke="black"/>
<path d="M246 384H271.559V356H335V378.4" stroke="black"/>
<path d="M210 383V372" stroke="black"/>
<path d="M210 384H167V297H210V340.032V363.887" stroke="black"/>
<path d="M115 405.533H99.5315V469H38.5676V397.133M14 371H26.2838H26.7387M26.7387 371H38.5676V374.733M26.7387 371V397.133H14.455H38.5676M38.5676 397.133V393.4M38.5676 393.4H14V389.667H38.5676M38.5676 393.4V389.667M38.5676 389.667V385.933M38.5676 385.933H14V382.2H38.5676M38.5676 385.933V382.2M38.5676 382.2V378.467M38.5676 378.467H14V374.733H38.5676M38.5676 378.467V374.733" stroke="black"/>
<path d="M14 355.615H39V348V359" stroke="black"/>
<path d="M14 321H26" stroke="black"/>
<path d="M39 314V321.692M39 339V321.692M39 321.692H36" stroke="black"/>
<path d="M55 356V413" stroke="black"/>
<path d="M55 350V297" stroke="black" stroke-width="2"/>
<path d="M221.869 384.196H166.01V298.537M244.762 152.685V194.357H260.33H285.054H333.587H334.503V132.312M334.503 11V132.312M333.587 247.141H334.503V221.212H253.919M334.961 162.408H363.806V165.65M363.806 174.91V192.968M378 75.8232H342.745M244.762 123.051V131.849V132.312M244.762 140.646V132.312M244.762 132.312H269.945M334.503 132.312H302.453M302.453 132.312V97.1222H313.442H282.307M302.453 132.312H269.945M214.086 78.6013H223.701M231.026 78.6013H244.762M244.762 78.6013V96.6592V97.1222M244.762 78.6013V42.9486M244.762 114.717V97.1222M244.762 97.1222H269.945V132.312M214.086 42.9486H222.327M231.026 42.9486H244.762M244.762 42.9486V11.463M273.15 11.463V78.6013H257.582M279.56 78.6013H334.045M323.514 97.1222H334.045M166.01 298.537V202.691H210.423M166.01 298.537H162.805M148.153 298.074H155.021M39.6403 218.434H100.078V206.395V230.473M39.6403 166.576H66.1962M14 340.209V411.977H37.8088M25.9044 322.151H14V292.518M14 277.238V292.518M14 292.518H39.1824V129.071L213.17 129.534V78.6013H185.698V15.1672H213.17M38.7245 369.842V469.392H212.712V523.103M212.712 529.122V523.103M212.712 523.103H202.639M196.687 523.103H191.65V587M210.423 298.537V270.756H244.762M252.088 270.756H244.762M244.762 269.83V245.521M244.762 270.756V221.212V245.521M244.762 245.521H210.423V202.691M210.423 202.691H223.701H244.762" stroke="black"/>
<path d="M246 299.583H255.223M263.754 299.583H272.285V271M272.285 271H263.754M272.285 271H335V283.704V320H246" stroke="black"/>
<path d="M230 383H246M244.588 203H245.059M245.059 222.286V210.806" stroke="black"/>
<path d="M245 205.86V202.211V194H260V200.386M260 206.316V209.053H278.182M285 220V209.053H283.182" stroke="black"/>
<path d="M277 209V194" stroke="black"/>
<path d="M259 221V216H263V220.091V221" stroke="black"/>
<path d="M213 35V64.4772H199.676V35M186.351 60.7925V64.4772H213M186.351 64.4772V35M186.351 60.7925H213V57.1079H186.351V60.7925ZM186.351 53.4232H213V49.7386H186.351V46.0539H213V42.3693H186.351M201.514 130.34V146H195.081M185.892 146H179V130.34" stroke="black"/>
<rect x="637" y="445.286" width="24" height="16" fill="#4CF6B2"/>
<path d="M641.923 459V448.28L642.435 448.824H639.283V447.8H643.075V459H641.923ZM647.704 459V448.28L648.216 448.824H645.064V447.8H648.856V459H647.704ZM654.877 459.096C654.067 459.096 653.299 458.968 652.573 458.712C651.859 458.445 651.283 458.093 650.845 457.656L651.405 456.744C651.768 457.117 652.253 457.427 652.861 457.672C653.48 457.917 654.152 458.04 654.877 458.04C655.805 458.04 656.515 457.837 657.005 457.432C657.507 457.027 657.757 456.483 657.757 455.8C657.757 455.117 657.512 454.573 657.021 454.168C656.541 453.763 655.779 453.56 654.733 453.56H653.933V452.712L657.389 448.376L657.549 448.824H651.309V447.8H658.509V448.616L655.053 452.952L654.493 452.584H654.925C656.269 452.584 657.272 452.883 657.933 453.48C658.605 454.077 658.941 454.845 658.941 455.784C658.941 456.413 658.792 456.979 658.493 457.48C658.195 457.981 657.741 458.376 657.133 458.664C656.536 458.952 655.784 459.096 654.877 459.096Z" fill="black"/>
<rect x="662" y="475.301" width="20" height="16" fill="#4CF6B2"/>
<path d="M666.722 489V478.28L667.234 478.824H664.082V477.8H667.874V489H666.722ZM672.503 489V478.28L673.015 478.824H669.863V477.8H673.655V489H672.503ZM678.284 489V478.28L678.796 478.824H675.644V477.8H679.436V489H678.284Z" fill="black"/>
<rect x="638" y="535.077" width="30" height="16" fill="#4CF6B2"/>
<path d="M642.784 549V538.28L643.296 538.824H640.144V537.8H643.936V549H642.784ZM651.077 549.096C650.213 549.096 649.445 548.872 648.773 548.424C648.101 547.965 647.573 547.315 647.189 546.472C646.805 545.619 646.613 544.595 646.613 543.4C646.613 542.205 646.805 541.187 647.189 540.344C647.573 539.491 648.101 538.84 648.773 538.392C649.445 537.933 650.213 537.704 651.077 537.704C651.941 537.704 652.709 537.933 653.381 538.392C654.053 538.84 654.581 539.491 654.965 540.344C655.36 541.187 655.557 542.205 655.557 543.4C655.557 544.595 655.36 545.619 654.965 546.472C654.581 547.315 654.053 547.965 653.381 548.424C652.709 548.872 651.941 549.096 651.077 549.096ZM651.077 548.04C651.739 548.04 652.315 547.864 652.805 547.512C653.296 547.149 653.68 546.627 653.957 545.944C654.235 545.251 654.373 544.403 654.373 543.4C654.373 542.397 654.235 541.555 653.957 540.872C653.68 540.179 653.296 539.656 652.805 539.304C652.315 538.941 651.739 538.76 651.077 538.76C650.437 538.76 649.867 538.941 649.365 539.304C648.864 539.656 648.475 540.179 648.197 540.872C647.92 541.555 647.781 542.397 647.781 543.4C647.781 544.403 647.92 545.251 648.197 545.944C648.475 546.627 648.864 547.149 649.365 547.512C649.867 547.864 650.437 548.04 651.077 548.04ZM660.167 549.096C659.666 549.096 659.186 549.048 658.727 548.952C658.279 548.856 657.874 548.701 657.511 548.488L657.975 547.56C658.263 547.752 658.594 547.891 658.967 547.976C659.351 548.051 659.746 548.088 660.151 548.088C661.356 548.088 662.316 547.704 663.031 546.936C663.756 546.168 664.119 545.021 664.119 543.496C664.119 543.251 664.103 542.957 664.071 542.616C664.05 542.275 663.991 541.933 663.895 541.592L664.295 541.896C664.188 542.451 663.959 542.925 663.607 543.32C663.266 543.704 662.839 543.997 662.327 544.2C661.826 544.403 661.266 544.504 660.647 544.504C659.911 544.504 659.255 544.365 658.679 544.088C658.114 543.811 657.671 543.421 657.351 542.92C657.031 542.419 656.871 541.827 656.871 541.144C656.871 540.44 657.036 539.832 657.367 539.32C657.698 538.808 658.151 538.413 658.727 538.136C659.314 537.848 659.97 537.704 660.695 537.704C661.687 537.704 662.524 537.928 663.207 538.376C663.89 538.813 664.407 539.448 664.759 540.28C665.111 541.112 665.287 542.12 665.287 543.304C665.287 544.563 665.068 545.624 664.631 546.488C664.204 547.352 663.607 548.003 662.839 548.44C662.071 548.877 661.18 549.096 660.167 549.096ZM660.823 543.528C661.399 543.528 661.9 543.421 662.327 543.208C662.764 542.995 663.1 542.701 663.335 542.328C663.58 541.955 663.703 541.539 663.703 541.08C663.703 540.664 663.591 540.275 663.367 539.912C663.143 539.549 662.812 539.256 662.375 539.032C661.938 538.797 661.394 538.68 660.743 538.68C660.21 538.68 659.735 538.781 659.319 538.984C658.914 539.176 658.594 539.453 658.359 539.816C658.124 540.179 658.007 540.611 658.007 541.112C658.007 541.848 658.258 542.435 658.759 542.872C659.271 543.309 659.959 543.528 660.823 543.528Z" fill="black"/>
<rect x="286" y="534" width="30" height="17" fill="#4CF6B2"/>
<path d="M291.393 548V537.28L291.905 537.824H288.753V536.8H292.545V548H291.393ZM299.687 548.096C298.823 548.096 298.055 547.872 297.383 547.424C296.711 546.965 296.183 546.315 295.799 545.472C295.415 544.619 295.223 543.595 295.223 542.4C295.223 541.205 295.415 540.187 295.799 539.344C296.183 538.491 296.711 537.84 297.383 537.392C298.055 536.933 298.823 536.704 299.687 536.704C300.551 536.704 301.319 536.933 301.991 537.392C302.663 537.84 303.191 538.491 303.575 539.344C303.969 540.187 304.167 541.205 304.167 542.4C304.167 543.595 303.969 544.619 303.575 545.472C303.191 546.315 302.663 546.965 301.991 547.424C301.319 547.872 300.551 548.096 299.687 548.096ZM299.687 547.04C300.348 547.04 300.924 546.864 301.415 546.512C301.905 546.149 302.289 545.627 302.567 544.944C302.844 544.251 302.983 543.403 302.983 542.4C302.983 541.397 302.844 540.555 302.567 539.872C302.289 539.179 301.905 538.656 301.415 538.304C300.924 537.941 300.348 537.76 299.687 537.76C299.047 537.76 298.476 537.941 297.975 538.304C297.473 538.656 297.084 539.179 296.807 539.872C296.529 540.555 296.391 541.397 296.391 542.4C296.391 543.403 296.529 544.251 296.807 544.944C297.084 545.627 297.473 546.149 297.975 546.512C298.476 546.864 299.047 547.04 299.687 547.04ZM309.004 548.096C308.193 548.096 307.425 547.968 306.7 547.712C305.985 547.445 305.409 547.093 304.972 546.656L305.532 545.744C305.895 546.117 306.38 546.427 306.988 546.672C307.607 546.917 308.279 547.04 309.004 547.04C309.932 547.04 310.641 546.837 311.132 546.432C311.633 546.027 311.884 545.483 311.884 544.8C311.884 544.117 311.639 543.573 311.148 543.168C310.668 542.763 309.905 542.56 308.86 542.56H308.06V541.712L311.516 537.376L311.676 537.824H305.436V536.8H312.636V537.616L309.18 541.952L308.62 541.584H309.052C310.396 541.584 311.399 541.883 312.06 542.48C312.732 543.077 313.068 543.845 313.068 544.784C313.068 545.413 312.919 545.979 312.62 546.48C312.321 546.981 311.868 547.376 311.26 547.664C310.663 547.952 309.911 548.096 309.004 548.096Z" fill="black"/>
<rect x="245" y="528.301" width="31" height="16" fill="#4CF6B2"/>
<path d="M250.065 542V531.28L250.577 531.824H247.425V530.8H251.217V542H250.065ZM258.359 542.096C257.495 542.096 256.727 541.872 256.055 541.424C255.383 540.965 254.855 540.315 254.471 539.472C254.087 538.619 253.895 537.595 253.895 536.4C253.895 535.205 254.087 534.187 254.471 533.344C254.855 532.491 255.383 531.84 256.055 531.392C256.727 530.933 257.495 530.704 258.359 530.704C259.223 530.704 259.991 530.933 260.663 531.392C261.335 531.84 261.863 532.491 262.247 533.344C262.641 534.187 262.839 535.205 262.839 536.4C262.839 537.595 262.641 538.619 262.247 539.472C261.863 540.315 261.335 540.965 260.663 541.424C259.991 541.872 259.223 542.096 258.359 542.096ZM258.359 541.04C259.02 541.04 259.596 540.864 260.087 540.512C260.577 540.149 260.961 539.627 261.239 538.944C261.516 538.251 261.655 537.403 261.655 536.4C261.655 535.397 261.516 534.555 261.239 533.872C260.961 533.179 260.577 532.656 260.087 532.304C259.596 531.941 259.02 531.76 258.359 531.76C257.719 531.76 257.148 531.941 256.647 532.304C256.145 532.656 255.756 533.179 255.479 533.872C255.201 534.555 255.062 535.397 255.062 536.4C255.062 537.403 255.201 538.251 255.479 538.944C255.756 539.627 256.145 540.149 256.647 540.512C257.148 540.864 257.719 541.04 258.359 541.04ZM264.296 539.056V538.224L270.232 530.8H271.512L265.624 538.224L265 538.032H274.008V539.056H264.296ZM270.616 542V539.056L270.648 538.032V535.44H271.768V542H270.616Z" fill="black"/>
<rect x="253" y="387.066" width="38" height="18" fill="#4CF6B2"/>
<path d="M259.151 402V391.28L259.663 391.824H256.511V390.8H260.303V402H259.151ZM262.772 402V401.184L267.428 396.624C267.855 396.208 268.175 395.845 268.388 395.536C268.601 395.216 268.745 394.917 268.82 394.64C268.895 394.363 268.932 394.101 268.932 393.856C268.932 393.205 268.708 392.693 268.26 392.32C267.823 391.947 267.172 391.76 266.308 391.76C265.647 391.76 265.06 391.861 264.548 392.064C264.047 392.267 263.615 392.581 263.252 393.008L262.436 392.304C262.873 391.792 263.433 391.397 264.116 391.12C264.799 390.843 265.561 390.704 266.404 390.704C267.161 390.704 267.817 390.827 268.372 391.072C268.927 391.307 269.353 391.653 269.652 392.112C269.961 392.571 270.116 393.109 270.116 393.728C270.116 394.091 270.063 394.448 269.956 394.8C269.86 395.152 269.679 395.525 269.412 395.92C269.156 396.304 268.777 396.741 268.276 397.232L264.004 401.424L263.684 400.976H270.628V402H262.772ZM271.866 402V401.184L276.522 396.624C276.948 396.208 277.268 395.845 277.482 395.536C277.695 395.216 277.839 394.917 277.914 394.64C277.988 394.363 278.026 394.101 278.026 393.856C278.026 393.205 277.802 392.693 277.354 392.32C276.916 391.947 276.266 391.76 275.402 391.76C274.74 391.76 274.154 391.861 273.642 392.064C273.14 392.267 272.708 392.581 272.346 393.008L271.53 392.304C271.967 391.792 272.527 391.397 273.21 391.12C273.892 390.843 274.655 390.704 275.498 390.704C276.255 390.704 276.911 390.827 277.466 391.072C278.02 391.307 278.447 391.653 278.746 392.112C279.055 392.571 279.21 393.109 279.21 393.728C279.21 394.091 279.156 394.448 279.05 394.8C278.954 395.152 278.772 395.525 278.506 395.92C278.25 396.304 277.871 396.741 277.37 397.232L273.098 401.424L272.778 400.976H279.722V402H271.866ZM287.167 402V400.144L287.119 399.84V396.736C287.119 396.021 286.917 395.472 286.511 395.088C286.117 394.704 285.525 394.512 284.735 394.512C284.191 394.512 283.674 394.603 283.183 394.784C282.693 394.965 282.277 395.205 281.935 395.504L281.423 394.656C281.85 394.293 282.362 394.016 282.959 393.824C283.557 393.621 284.186 393.52 284.847 393.52C285.935 393.52 286.773 393.792 287.359 394.336C287.957 394.869 288.255 395.685 288.255 396.784V402H287.167ZM284.271 402.08C283.642 402.08 283.093 401.979 282.623 401.776C282.165 401.563 281.813 401.275 281.567 400.912C281.322 400.539 281.199 400.112 281.199 399.632C281.199 399.195 281.301 398.8 281.503 398.448C281.717 398.085 282.058 397.797 282.527 397.584C283.007 397.36 283.647 397.248 284.447 397.248H287.343V398.096H284.479C283.669 398.096 283.103 398.24 282.783 398.528C282.474 398.816 282.319 399.173 282.319 399.6C282.319 400.08 282.506 400.464 282.879 400.752C283.253 401.04 283.775 401.184 284.447 401.184C285.087 401.184 285.637 401.04 286.095 400.752C286.565 400.453 286.906 400.027 287.119 399.472L287.375 400.256C287.162 400.811 286.789 401.253 286.255 401.584C285.733 401.915 285.071 402.08 284.271 402.08Z" fill="black"/>
<rect x="277" y="297.531" width="38" height="17" fill="#4CF6B2"/>
<path d="M281.973 312V301.28L282.485 301.824H279.333V300.8H283.125V312H281.973ZM285.594 312V311.184L290.25 306.624C290.677 306.208 290.997 305.845 291.21 305.536C291.424 305.216 291.568 304.917 291.642 304.64C291.717 304.363 291.754 304.101 291.754 303.856C291.754 303.205 291.53 302.693 291.082 302.32C290.645 301.947 289.994 301.76 289.13 301.76C288.469 301.76 287.882 301.861 287.37 302.064C286.869 302.267 286.437 302.581 286.074 303.008L285.258 302.304C285.696 301.792 286.256 301.397 286.938 301.12C287.621 300.843 288.384 300.704 289.226 300.704C289.984 300.704 290.64 300.827 291.194 301.072C291.749 301.307 292.176 301.653 292.474 302.112C292.784 302.571 292.938 303.109 292.938 303.728C292.938 304.091 292.885 304.448 292.778 304.8C292.682 305.152 292.501 305.525 292.234 305.92C291.978 306.304 291.6 306.741 291.098 307.232L286.826 311.424L286.506 310.976H293.45V312H285.594ZM294.688 312V311.184L299.344 306.624C299.771 306.208 300.091 305.845 300.304 305.536C300.517 305.216 300.661 304.917 300.736 304.64C300.811 304.363 300.848 304.101 300.848 303.856C300.848 303.205 300.624 302.693 300.176 302.32C299.739 301.947 299.088 301.76 298.224 301.76C297.563 301.76 296.976 301.861 296.464 302.064C295.963 302.267 295.531 302.581 295.168 303.008L294.352 302.304C294.789 301.792 295.349 301.397 296.032 301.12C296.715 300.843 297.477 300.704 298.32 300.704C299.077 300.704 299.733 300.827 300.288 301.072C300.843 301.307 301.269 301.653 301.568 302.112C301.877 302.571 302.032 303.109 302.032 303.728C302.032 304.091 301.979 304.448 301.872 304.8C301.776 305.152 301.595 305.525 301.328 305.92C301.072 306.304 300.693 306.741 300.192 307.232L295.92 311.424L295.6 310.976H302.544V312H294.688ZM308.55 312.096C307.867 312.096 307.259 311.984 306.726 311.76C306.203 311.536 305.755 311.195 305.382 310.736C305.008 310.277 304.726 309.712 304.534 309.04C304.342 308.357 304.246 307.568 304.246 306.672C304.246 305.872 304.32 305.173 304.47 304.576C304.619 303.968 304.827 303.445 305.094 303.008C305.36 302.571 305.67 302.203 306.022 301.904C306.384 301.595 306.774 301.349 307.19 301.168C307.616 300.976 308.054 300.832 308.502 300.736L312.278 299.856L312.47 300.912L308.918 301.712C308.694 301.765 308.422 301.84 308.102 301.936C307.792 302.032 307.472 302.176 307.142 302.368C306.822 302.56 306.523 302.827 306.246 303.168C305.968 303.509 305.744 303.952 305.574 304.496C305.414 305.029 305.334 305.696 305.334 306.496C305.334 306.667 305.339 306.805 305.35 306.912C305.36 307.008 305.371 307.115 305.382 307.232C305.403 307.339 305.419 307.499 305.43 307.712L304.934 307.296C305.051 306.645 305.291 306.08 305.654 305.6C306.016 305.109 306.47 304.731 307.014 304.464C307.568 304.187 308.182 304.048 308.854 304.048C309.632 304.048 310.326 304.219 310.934 304.56C311.542 304.891 312.016 305.355 312.358 305.952C312.71 306.549 312.886 307.243 312.886 308.032C312.886 308.811 312.704 309.509 312.342 310.128C311.99 310.747 311.488 311.232 310.838 311.584C310.187 311.925 309.424 312.096 308.55 312.096ZM308.678 311.152C309.275 311.152 309.803 311.019 310.262 310.752C310.72 310.475 311.078 310.101 311.334 309.632C311.6 309.163 311.734 308.635 311.734 308.048C311.734 307.472 311.6 306.96 311.334 306.512C311.078 306.064 310.72 305.712 310.262 305.456C309.803 305.189 309.27 305.056 308.662 305.056C308.064 305.056 307.536 305.184 307.078 305.44C306.619 305.685 306.256 306.032 305.99 306.48C305.734 306.928 305.606 307.445 305.606 308.032C305.606 308.619 305.734 309.147 305.99 309.616C306.256 310.085 306.619 310.459 307.078 310.736C307.547 311.013 308.08 311.152 308.678 311.152Z" fill="black"/>
<rect x="254" y="249" width="30" height="17" fill="#4CF6B2"/>
<path d="M259.784 263V252.28L260.296 252.824H257.144V251.8H260.936V263H259.784ZM263.405 263V262.184L268.061 257.624C268.488 257.208 268.808 256.845 269.021 256.536C269.235 256.216 269.379 255.917 269.453 255.64C269.528 255.363 269.565 255.101 269.565 254.856C269.565 254.205 269.341 253.693 268.893 253.32C268.456 252.947 267.805 252.76 266.941 252.76C266.28 252.76 265.693 252.861 265.181 253.064C264.68 253.267 264.248 253.581 263.885 254.008L263.069 253.304C263.507 252.792 264.067 252.397 264.749 252.12C265.432 251.843 266.195 251.704 267.037 251.704C267.795 251.704 268.451 251.827 269.005 252.072C269.56 252.307 269.987 252.653 270.285 253.112C270.595 253.571 270.749 254.109 270.749 254.728C270.749 255.091 270.696 255.448 270.589 255.8C270.493 256.152 270.312 256.525 270.045 256.92C269.789 257.304 269.411 257.741 268.909 258.232L264.637 262.424L264.317 261.976H271.261V263H263.405ZM272.499 263V262.184L277.155 257.624C277.582 257.208 277.902 256.845 278.115 256.536C278.328 256.216 278.472 255.917 278.547 255.64C278.622 255.363 278.659 255.101 278.659 254.856C278.659 254.205 278.435 253.693 277.987 253.32C277.55 252.947 276.899 252.76 276.035 252.76C275.374 252.76 274.787 252.861 274.275 253.064C273.774 253.267 273.342 253.581 272.979 254.008L272.163 253.304C272.6 252.792 273.16 252.397 273.843 252.12C274.526 251.843 275.288 251.704 276.131 251.704C276.888 251.704 277.544 251.827 278.099 252.072C278.654 252.307 279.08 252.653 279.379 253.112C279.688 253.571 279.843 254.109 279.843 254.728C279.843 255.091 279.79 255.448 279.683 255.8C279.587 256.152 279.406 256.525 279.139 256.92C278.883 257.304 278.504 257.741 278.003 258.232L273.731 262.424L273.411 261.976H280.355V263H272.499Z" fill="black"/>
<rect x="644" y="388.237" width="24" height="16" fill="#4CF6B2"/>
<path d="M648.918 402V391.28L649.43 391.824H646.278V390.8H650.07V402H648.918ZM654.699 402V391.28L655.211 391.824H652.059V390.8H655.851V402H654.699ZM662.064 402.096C661.264 402.096 660.502 401.968 659.776 401.712C659.051 401.445 658.475 401.093 658.048 400.656L658.608 399.744C658.96 400.117 659.44 400.427 660.048 400.672C660.667 400.917 661.334 401.04 662.048 401.04C662.998 401.04 663.718 400.832 664.208 400.416C664.71 399.989 664.96 399.435 664.96 398.752C664.96 398.272 664.843 397.861 664.608 397.52C664.384 397.168 664 396.896 663.456 396.704C662.912 396.512 662.166 396.416 661.216 396.416H658.832L659.408 390.8H665.536V391.824H659.872L660.464 391.264L659.968 395.968L659.376 395.392H661.472C662.603 395.392 663.51 395.531 664.192 395.808C664.875 396.085 665.366 396.475 665.664 396.976C665.974 397.467 666.128 398.043 666.128 398.704C666.128 399.333 665.979 399.909 665.68 400.432C665.382 400.944 664.934 401.349 664.336 401.648C663.739 401.947 662.982 402.096 662.064 402.096Z" fill="black"/>
<rect x="647" y="250.983" width="25" height="15" fill="#4CF6B2"/>
<path d="M652.054 264V253.28L652.566 253.824H649.414V252.8H653.206V264H652.054ZM657.835 264V253.28L658.347 253.824H655.195V252.8H658.987V264H657.835ZM663.632 264L668.464 253.312L668.816 253.824H661.888L662.48 253.264V255.92H661.344V252.8H669.568V253.616L664.88 264H663.632Z" fill="black"/>
<rect x="644" y="139.002" width="23" height="16" fill="#4CF6B2"/>
<path d="M648.923 153V142.28L649.435 142.824H646.283V141.8H650.075V153H648.923ZM652.544 153V152.184L657.2 147.624C657.627 147.208 657.947 146.845 658.16 146.536C658.373 146.216 658.517 145.917 658.592 145.64C658.667 145.363 658.704 145.101 658.704 144.856C658.704 144.205 658.48 143.693 658.032 143.32C657.595 142.947 656.944 142.76 656.08 142.76C655.419 142.76 654.832 142.861 654.32 143.064C653.819 143.267 653.387 143.581 653.024 144.008L652.208 143.304C652.645 142.792 653.205 142.397 653.888 142.12C654.571 141.843 655.333 141.704 656.176 141.704C656.933 141.704 657.589 141.827 658.144 142.072C658.699 142.307 659.125 142.653 659.424 143.112C659.733 143.571 659.888 144.109 659.888 144.728C659.888 145.091 659.835 145.448 659.728 145.8C659.632 146.152 659.451 146.525 659.184 146.92C658.928 147.304 658.549 147.741 658.048 148.232L653.776 152.424L653.456 151.976H660.4V153H652.544ZM663.798 153V142.28L664.31 142.824H661.158V141.8H664.95V153H663.798Z" fill="black"/>
<rect x="644" y="111.556" width="28" height="16" fill="#4CF6B2"/>
<path d="M649.358 125V114.28L649.87 114.824H646.718V113.8H650.51V125H649.358ZM652.979 125V124.184L657.635 119.624C658.062 119.208 658.382 118.845 658.595 118.536C658.809 118.216 658.953 117.917 659.027 117.64C659.102 117.363 659.139 117.101 659.139 116.856C659.139 116.205 658.915 115.693 658.467 115.32C658.03 114.947 657.379 114.76 656.515 114.76C655.854 114.76 655.267 114.861 654.755 115.064C654.254 115.267 653.822 115.581 653.459 116.008L652.643 115.304C653.081 114.792 653.641 114.397 654.323 114.12C655.006 113.843 655.769 113.704 656.611 113.704C657.369 113.704 658.025 113.827 658.579 114.072C659.134 114.307 659.561 114.653 659.859 115.112C660.169 115.571 660.323 116.109 660.323 116.728C660.323 117.091 660.27 117.448 660.163 117.8C660.067 118.152 659.886 118.525 659.619 118.92C659.363 119.304 658.985 119.741 658.483 120.232L654.211 124.424L653.891 123.976H660.835V125H652.979ZM665.625 125.096C664.815 125.096 664.047 124.968 663.321 124.712C662.607 124.445 662.031 124.093 661.593 123.656L662.153 122.744C662.516 123.117 663.001 123.427 663.609 123.672C664.228 123.917 664.9 124.04 665.625 124.04C666.553 124.04 667.263 123.837 667.753 123.432C668.255 123.027 668.505 122.483 668.505 121.8C668.505 121.117 668.26 120.573 667.769 120.168C667.289 119.763 666.527 119.56 665.481 119.56H664.681V118.712L668.137 114.376L668.297 114.824H662.057V113.8H669.257V114.616L665.801 118.952L665.241 118.584H665.673C667.017 118.584 668.02 118.883 668.681 119.48C669.353 120.077 669.689 120.845 669.689 121.784C669.689 122.413 669.54 122.979 669.241 123.48C668.943 123.981 668.489 124.376 667.881 124.664C667.284 124.952 666.532 125.096 665.625 125.096Z" fill="black"/>
<rect x="607" y="51.8085" width="28" height="17" fill="#4CF6B2"/>
<path d="M612.185 66V55.28L612.697 55.824H609.545V54.8H613.337V66H612.185ZM615.806 66V65.184L620.462 60.624C620.889 60.208 621.209 59.8453 621.422 59.536C621.635 59.216 621.779 58.9173 621.854 58.64C621.929 58.3627 621.966 58.1013 621.966 57.856C621.966 57.2053 621.742 56.6933 621.294 56.32C620.857 55.9467 620.206 55.76 619.342 55.76C618.681 55.76 618.094 55.8613 617.582 56.064C617.081 56.2667 616.649 56.5813 616.286 57.008L615.47 56.304C615.907 55.792 616.467 55.3973 617.15 55.12C617.833 54.8427 618.595 54.704 619.438 54.704C620.195 54.704 620.851 54.8267 621.406 55.072C621.961 55.3067 622.387 55.6533 622.686 56.112C622.995 56.5707 623.15 57.1093 623.15 57.728C623.15 58.0907 623.097 58.448 622.99 58.8C622.894 59.152 622.713 59.5253 622.446 59.92C622.19 60.304 621.811 60.7413 621.31 61.232L617.038 65.424L616.718 64.976H623.662V66H615.806ZM628.644 66.096C627.844 66.096 627.081 65.968 626.356 65.712C625.631 65.4453 625.055 65.0933 624.628 64.656L625.188 63.744C625.54 64.1173 626.02 64.4267 626.628 64.672C627.247 64.9173 627.913 65.04 628.628 65.04C629.577 65.04 630.297 64.832 630.788 64.416C631.289 63.9893 631.54 63.4347 631.54 62.752C631.54 62.272 631.423 61.8613 631.188 61.52C630.964 61.168 630.58 60.896 630.036 60.704C629.492 60.512 628.745 60.416 627.796 60.416H625.412L625.988 54.8H632.116V55.824H626.452L627.044 55.264L626.548 59.968L625.956 59.392H628.052C629.183 59.392 630.089 59.5307 630.772 59.808C631.455 60.0853 631.945 60.4747 632.244 60.976C632.553 61.4667 632.708 62.0427 632.708 62.704C632.708 63.3333 632.559 63.9093 632.26 64.432C631.961 64.944 631.513 65.3493 630.916 65.648C630.319 65.9467 629.561 66.096 628.644 66.096Z" fill="black"/>
<rect x="519" y="140.002" width="25" height="16" fill="#4CF6B2"/>
<path d="M523.726 154V143.28L524.238 143.824H521.086V142.8H524.878V154H523.726ZM529.508 154V143.28L530.02 143.824H526.868V142.8H530.66V154H529.508ZM537.593 154.096C536.697 154.096 535.924 153.968 535.273 153.712C534.633 153.456 534.137 153.088 533.785 152.608C533.444 152.117 533.273 151.541 533.273 150.88C533.273 150.24 533.438 149.696 533.769 149.248C534.11 148.789 534.601 148.437 535.241 148.192C535.892 147.947 536.676 147.824 537.593 147.824C538.5 147.824 539.278 147.947 539.929 148.192C540.58 148.437 541.076 148.789 541.417 149.248C541.769 149.696 541.945 150.24 541.945 150.88C541.945 151.541 541.769 152.117 541.417 152.608C541.065 153.088 540.564 153.456 539.913 153.712C539.262 153.968 538.489 154.096 537.593 154.096ZM537.593 153.12C538.585 153.12 539.358 152.917 539.913 152.512C540.478 152.107 540.761 151.557 540.761 150.864C540.761 150.171 540.478 149.627 539.913 149.232C539.358 148.827 538.585 148.624 537.593 148.624C536.601 148.624 535.828 148.827 535.273 149.232C534.718 149.627 534.441 150.171 534.441 150.864C534.441 151.557 534.718 152.107 535.273 152.512C535.828 152.917 536.601 153.12 537.593 153.12ZM537.593 147.712C538.468 147.712 539.15 147.531 539.641 147.168C540.132 146.805 540.377 146.32 540.377 145.712C540.377 145.072 540.121 144.576 539.609 144.224C539.108 143.861 538.436 143.68 537.593 143.68C536.75 143.68 536.078 143.861 535.577 144.224C535.076 144.576 534.825 145.067 534.825 145.696C534.825 146.315 535.065 146.805 535.545 147.168C536.036 147.531 536.718 147.712 537.593 147.712ZM537.593 148.48C536.761 148.48 536.052 148.368 535.465 148.144C534.889 147.92 534.446 147.6 534.137 147.184C533.828 146.757 533.673 146.251 533.673 145.664C533.673 145.045 533.833 144.517 534.153 144.08C534.484 143.632 534.942 143.291 535.529 143.056C536.116 142.821 536.804 142.704 537.593 142.704C538.382 142.704 539.07 142.821 539.657 143.056C540.254 143.291 540.718 143.632 541.049 144.08C541.38 144.517 541.545 145.045 541.545 145.664C541.545 146.251 541.39 146.757 541.081 147.184C540.772 147.6 540.318 147.92 539.721 148.144C539.134 148.368 538.425 148.48 537.593 148.48Z" fill="black"/>
<rect x="457" y="80.9184" width="28" height="15" fill="#4CF6B2"/>
<path d="M461.726 94V83.28L462.238 83.824H459.086V82.8H462.878V94H461.726ZM465.347 94V93.184L470.003 88.624C470.43 88.208 470.75 87.8453 470.963 87.536C471.176 87.216 471.32 86.9173 471.395 86.64C471.47 86.3627 471.507 86.1013 471.507 85.856C471.507 85.2053 471.283 84.6933 470.835 84.32C470.398 83.9467 469.747 83.76 468.883 83.76C468.222 83.76 467.635 83.8613 467.123 84.064C466.622 84.2667 466.19 84.5813 465.827 85.008L465.011 84.304C465.448 83.792 466.008 83.3973 466.691 83.12C467.374 82.8427 468.136 82.704 468.979 82.704C469.736 82.704 470.392 82.8267 470.947 83.072C471.502 83.3067 471.928 83.6533 472.227 84.112C472.536 84.5707 472.691 85.1093 472.691 85.728C472.691 86.0907 472.638 86.448 472.531 86.8C472.435 87.152 472.254 87.5253 471.987 87.92C471.731 88.304 471.352 88.7413 470.851 89.232L466.579 93.424L466.259 92.976H473.203V94H465.347ZM476.586 94L481.418 83.312L481.77 83.824H474.842L475.434 83.264V85.92H474.298V82.8H482.522V83.616L477.834 94H476.586Z" fill="black"/>
<rect x="470" y="140.587" width="29" height="16" fill="#4CF6B2"/>
<path d="M474.989 154V143.28L475.501 143.824H472.349V142.8H476.141V154H474.989ZM478.61 154V153.184L483.266 148.624C483.693 148.208 484.013 147.845 484.226 147.536C484.439 147.216 484.583 146.917 484.658 146.64C484.733 146.363 484.77 146.101 484.77 145.856C484.77 145.205 484.546 144.693 484.098 144.32C483.661 143.947 483.01 143.76 482.146 143.76C481.485 143.76 480.898 143.861 480.386 144.064C479.885 144.267 479.453 144.581 479.09 145.008L478.274 144.304C478.711 143.792 479.271 143.397 479.954 143.12C480.637 142.843 481.399 142.704 482.242 142.704C482.999 142.704 483.655 142.827 484.21 143.072C484.765 143.307 485.191 143.653 485.49 144.112C485.799 144.571 485.954 145.109 485.954 145.728C485.954 146.091 485.901 146.448 485.794 146.8C485.698 147.152 485.517 147.525 485.25 147.92C484.994 148.304 484.615 148.741 484.114 149.232L479.842 153.424L479.522 152.976H486.466V154H478.61ZM492.344 154.096C491.48 154.096 490.712 153.872 490.04 153.424C489.368 152.965 488.84 152.315 488.456 151.472C488.072 150.619 487.88 149.595 487.88 148.4C487.88 147.205 488.072 146.187 488.456 145.344C488.84 144.491 489.368 143.84 490.04 143.392C490.712 142.933 491.48 142.704 492.344 142.704C493.208 142.704 493.976 142.933 494.648 143.392C495.32 143.84 495.848 144.491 496.232 145.344C496.627 146.187 496.824 147.205 496.824 148.4C496.824 149.595 496.627 150.619 496.232 151.472C495.848 152.315 495.32 152.965 494.648 153.424C493.976 153.872 493.208 154.096 492.344 154.096ZM492.344 153.04C493.006 153.04 493.582 152.864 494.072 152.512C494.563 152.149 494.947 151.627 495.224 150.944C495.502 150.251 495.64 149.403 495.64 148.4C495.64 147.397 495.502 146.555 495.224 145.872C494.947 145.179 494.563 144.656 494.072 144.304C493.582 143.941 493.006 143.76 492.344 143.76C491.704 143.76 491.134 143.941 490.632 144.304C490.131 144.656 489.742 145.179 489.464 145.872C489.187 146.555 489.048 147.397 489.048 148.4C489.048 149.403 489.187 150.251 489.464 150.944C489.742 151.627 490.131 152.149 490.632 152.512C491.134 152.864 491.704 153.04 492.344 153.04Z" fill="black"/>
<rect x="647" y="219.071" width="25" height="16" fill="#4CF6B2"/>
<path d="M651.924 233V222.28L652.436 222.824H649.284V221.8H653.076V233H651.924ZM657.705 233V222.28L658.217 222.824H655.065V221.8H658.857V233H657.705ZM664.494 233.096C663.993 233.096 663.513 233.048 663.054 232.952C662.606 232.856 662.201 232.701 661.838 232.488L662.302 231.56C662.59 231.752 662.921 231.891 663.294 231.976C663.678 232.051 664.073 232.088 664.478 232.088C665.683 232.088 666.643 231.704 667.358 230.936C668.083 230.168 668.446 229.021 668.446 227.496C668.446 227.251 668.43 226.957 668.398 226.616C668.377 226.275 668.318 225.933 668.222 225.592L668.622 225.896C668.515 226.451 668.286 226.925 667.934 227.32C667.593 227.704 667.166 227.997 666.654 228.2C666.153 228.403 665.593 228.504 664.974 228.504C664.238 228.504 663.582 228.365 663.006 228.088C662.441 227.811 661.998 227.421 661.678 226.92C661.358 226.419 661.198 225.827 661.198 225.144C661.198 224.44 661.363 223.832 661.694 223.32C662.025 222.808 662.478 222.413 663.054 222.136C663.641 221.848 664.297 221.704 665.022 221.704C666.014 221.704 666.851 221.928 667.534 222.376C668.217 222.813 668.734 223.448 669.086 224.28C669.438 225.112 669.614 226.12 669.614 227.304C669.614 228.563 669.395 229.624 668.958 230.488C668.531 231.352 667.934 232.003 667.166 232.44C666.398 232.877 665.507 233.096 664.494 233.096ZM665.15 227.528C665.726 227.528 666.227 227.421 666.654 227.208C667.091 226.995 667.427 226.701 667.662 226.328C667.907 225.955 668.03 225.539 668.03 225.08C668.03 224.664 667.918 224.275 667.694 223.912C667.47 223.549 667.139 223.256 666.702 223.032C666.265 222.797 665.721 222.68 665.07 222.68C664.537 222.68 664.062 222.781 663.646 222.984C663.241 223.176 662.921 223.453 662.686 223.816C662.451 224.179 662.334 224.611 662.334 225.112C662.334 225.848 662.585 226.435 663.086 226.872C663.598 227.309 664.286 227.528 665.15 227.528Z" fill="black"/>
<rect x="570" y="196.071" width="26" height="16" fill="#4CF6B2"/>
<path d="M575.194 210V199.28L575.706 199.824H572.554V198.8H576.346V210H575.194ZM580.975 210V199.28L581.487 199.824H578.335V198.8H582.127V210H580.975ZM589.269 210.096C588.405 210.096 587.637 209.872 586.965 209.424C586.293 208.965 585.765 208.315 585.381 207.472C584.997 206.619 584.805 205.595 584.805 204.4C584.805 203.205 584.997 202.187 585.381 201.344C585.765 200.491 586.293 199.84 586.965 199.392C587.637 198.933 588.405 198.704 589.269 198.704C590.133 198.704 590.901 198.933 591.573 199.392C592.245 199.84 592.773 200.491 593.157 201.344C593.551 202.187 593.749 203.205 593.749 204.4C593.749 205.595 593.551 206.619 593.157 207.472C592.773 208.315 592.245 208.965 591.573 209.424C590.901 209.872 590.133 210.096 589.269 210.096ZM589.269 209.04C589.93 209.04 590.506 208.864 590.997 208.512C591.487 208.149 591.871 207.627 592.149 206.944C592.426 206.251 592.565 205.403 592.565 204.4C592.565 203.397 592.426 202.555 592.149 201.872C591.871 201.179 591.487 200.656 590.997 200.304C590.506 199.941 589.93 199.76 589.269 199.76C588.629 199.76 588.058 199.941 587.557 200.304C587.055 200.656 586.666 201.179 586.389 201.872C586.111 202.555 585.973 203.397 585.973 204.4C585.973 205.403 586.111 206.251 586.389 206.944C586.666 207.627 587.055 208.149 587.557 208.512C588.058 208.864 588.629 209.04 589.269 209.04Z" fill="black"/>
<rect x="564" y="253.248" width="29" height="17" fill="#4CF6B2"/>
<path d="M568.328 268V257.28L568.84 257.824H565.688V256.8H569.48V268H568.328ZM576.622 268.096C575.758 268.096 574.99 267.872 574.318 267.424C573.646 266.965 573.118 266.315 572.734 265.472C572.35 264.619 572.158 263.595 572.158 262.4C572.158 261.205 572.35 260.187 572.734 259.344C573.118 258.491 573.646 257.84 574.318 257.392C574.99 256.933 575.758 256.704 576.622 256.704C577.486 256.704 578.254 256.933 578.926 257.392C579.598 257.84 580.126 258.491 580.51 259.344C580.904 260.187 581.102 261.205 581.102 262.4C581.102 263.595 580.904 264.619 580.51 265.472C580.126 266.315 579.598 266.965 578.926 267.424C578.254 267.872 577.486 268.096 576.622 268.096ZM576.622 267.04C577.283 267.04 577.859 266.864 578.35 266.512C578.84 266.149 579.224 265.627 579.502 264.944C579.779 264.251 579.918 263.403 579.918 262.4C579.918 261.397 579.779 260.555 579.502 259.872C579.224 259.179 578.84 258.656 578.35 258.304C577.859 257.941 577.283 257.76 576.622 257.76C575.982 257.76 575.411 257.941 574.91 258.304C574.408 258.656 574.019 259.179 573.742 259.872C573.464 260.555 573.326 261.397 573.326 262.4C573.326 263.403 573.464 264.251 573.742 264.944C574.019 265.627 574.408 266.149 574.91 266.512C575.411 266.864 575.982 267.04 576.622 267.04ZM587.007 268.096C586.111 268.096 585.338 267.968 584.687 267.712C584.047 267.456 583.551 267.088 583.199 266.608C582.858 266.117 582.687 265.541 582.687 264.88C582.687 264.24 582.853 263.696 583.183 263.248C583.525 262.789 584.015 262.437 584.655 262.192C585.306 261.947 586.09 261.824 587.007 261.824C587.914 261.824 588.693 261.947 589.343 262.192C589.994 262.437 590.49 262.789 590.831 263.248C591.183 263.696 591.359 264.24 591.359 264.88C591.359 265.541 591.183 266.117 590.831 266.608C590.479 267.088 589.978 267.456 589.327 267.712C588.677 267.968 587.903 268.096 587.007 268.096ZM587.007 267.12C587.999 267.12 588.773 266.917 589.327 266.512C589.893 266.107 590.175 265.557 590.175 264.864C590.175 264.171 589.893 263.627 589.327 263.232C588.773 262.827 587.999 262.624 587.007 262.624C586.015 262.624 585.242 262.827 584.687 263.232C584.133 263.627 583.855 264.171 583.855 264.864C583.855 265.557 584.133 266.107 584.687 266.512C585.242 266.917 586.015 267.12 587.007 267.12ZM587.007 261.712C587.882 261.712 588.565 261.531 589.055 261.168C589.546 260.805 589.791 260.32 589.791 259.712C589.791 259.072 589.535 258.576 589.023 258.224C588.522 257.861 587.85 257.68 587.007 257.68C586.165 257.68 585.493 257.861 584.991 258.224C584.49 258.576 584.239 259.067 584.239 259.696C584.239 260.315 584.479 260.805 584.959 261.168C585.45 261.531 586.133 261.712 587.007 261.712ZM587.007 262.48C586.175 262.48 585.466 262.368 584.879 262.144C584.303 261.92 583.861 261.6 583.551 261.184C583.242 260.757 583.087 260.251 583.087 259.664C583.087 259.045 583.247 258.517 583.567 258.08C583.898 257.632 584.357 257.291 584.943 257.056C585.53 256.821 586.218 256.704 587.007 256.704C587.797 256.704 588.485 256.821 589.071 257.056C589.669 257.291 590.133 257.632 590.463 258.08C590.794 258.517 590.959 259.045 590.959 259.664C590.959 260.251 590.805 260.757 590.495 261.184C590.186 261.6 589.733 261.92 589.135 262.144C588.549 262.368 587.839 262.48 587.007 262.48Z" fill="black"/>
<rect x="502" y="530.301" width="29" height="16" fill="#4CF6B2"/>
<path d="M506.784 544V533.28L507.296 533.824H504.144V532.8H507.936V544H506.784ZM515.077 544.096C514.213 544.096 513.445 543.872 512.773 543.424C512.101 542.965 511.573 542.315 511.189 541.472C510.805 540.619 510.613 539.595 510.613 538.4C510.613 537.205 510.805 536.187 511.189 535.344C511.573 534.491 512.101 533.84 512.773 533.392C513.445 532.933 514.213 532.704 515.077 532.704C515.941 532.704 516.709 532.933 517.381 533.392C518.053 533.84 518.581 534.491 518.965 535.344C519.36 536.187 519.557 537.205 519.557 538.4C519.557 539.595 519.36 540.619 518.965 541.472C518.581 542.315 518.053 542.965 517.381 543.424C516.709 543.872 515.941 544.096 515.077 544.096ZM515.077 543.04C515.739 543.04 516.315 542.864 516.805 542.512C517.296 542.149 517.68 541.627 517.957 540.944C518.235 540.251 518.373 539.403 518.373 538.4C518.373 537.397 518.235 536.555 517.957 535.872C517.68 535.179 517.296 534.656 516.805 534.304C516.315 533.941 515.739 533.76 515.077 533.76C514.437 533.76 513.867 533.941 513.365 534.304C512.864 534.656 512.475 535.179 512.197 535.872C511.92 536.555 511.781 537.397 511.781 538.4C511.781 539.403 511.92 540.251 512.197 540.944C512.475 541.627 512.864 542.149 513.365 542.512C513.867 542.864 514.437 543.04 515.077 543.04ZM524.743 544.096C523.943 544.096 523.18 543.968 522.455 543.712C521.73 543.445 521.154 543.093 520.727 542.656L521.287 541.744C521.639 542.117 522.119 542.427 522.727 542.672C523.346 542.917 524.012 543.04 524.727 543.04C525.676 543.04 526.396 542.832 526.887 542.416C527.388 541.989 527.639 541.435 527.639 540.752C527.639 540.272 527.522 539.861 527.287 539.52C527.063 539.168 526.679 538.896 526.135 538.704C525.591 538.512 524.844 538.416 523.895 538.416H521.511L522.087 532.8H528.215V533.824H522.551L523.143 533.264L522.647 537.968L522.055 537.392H524.151C525.282 537.392 526.188 537.531 526.871 537.808C527.554 538.085 528.044 538.475 528.343 538.976C528.652 539.467 528.807 540.043 528.807 540.704C528.807 541.333 528.658 541.909 528.359 542.432C528.06 542.944 527.612 543.349 527.015 543.648C526.418 543.947 525.66 544.096 524.743 544.096Z" fill="black"/>
<rect x="541" y="535.301" width="29" height="16" fill="#4CF6B2"/>
<path d="M545.784 549V538.28L546.296 538.824H543.144V537.8H546.936V549H545.784ZM554.077 549.096C553.213 549.096 552.445 548.872 551.773 548.424C551.101 547.965 550.573 547.315 550.189 546.472C549.805 545.619 549.613 544.595 549.613 543.4C549.613 542.205 549.805 541.187 550.189 540.344C550.573 539.491 551.101 538.84 551.773 538.392C552.445 537.933 553.213 537.704 554.077 537.704C554.941 537.704 555.709 537.933 556.381 538.392C557.053 538.84 557.581 539.491 557.965 540.344C558.36 541.187 558.557 542.205 558.557 543.4C558.557 544.595 558.36 545.619 557.965 546.472C557.581 547.315 557.053 547.965 556.381 548.424C555.709 548.872 554.941 549.096 554.077 549.096ZM554.077 548.04C554.739 548.04 555.315 547.864 555.805 547.512C556.296 547.149 556.68 546.627 556.957 545.944C557.235 545.251 557.373 544.403 557.373 543.4C557.373 542.397 557.235 541.555 556.957 540.872C556.68 540.179 556.296 539.656 555.805 539.304C555.315 538.941 554.739 538.76 554.077 538.76C553.437 538.76 552.867 538.941 552.365 539.304C551.864 539.656 551.475 540.179 551.197 540.872C550.92 541.555 550.781 542.397 550.781 543.4C550.781 544.403 550.92 545.251 551.197 545.944C551.475 546.627 551.864 547.149 552.365 547.512C552.867 547.864 553.437 548.04 554.077 548.04ZM562.05 549L566.882 538.312L567.234 538.824H560.306L560.898 538.264V540.92H559.762V537.8H567.986V538.616L563.298 549H562.05Z" fill="black"/>
<rect x="363" y="417" width="88" height="159" fill="#38C98F" fill-opacity="0.5"/>
<rect x="218" y="515" width="19" height="58" fill="#38C98F" fill-opacity="0.5"/>
<rect x="153" y="388" width="68" height="13" fill="#38C98F" fill-opacity="0.5"/>
<rect x="238" y="278" width="31" height="13" fill="#38C98F" fill-opacity="0.5"/>
<rect x="221" y="388" width="19" height="76" fill="#38C98F" fill-opacity="0.5"/>
<rect x="219" y="278" width="19" height="103" fill="#38C98F" fill-opacity="0.5"/>
<rect x="468" y="478" width="179" height="37" fill="#38C98F" fill-opacity="0.5"/>
<rect x="218" y="478" width="134" height="37" fill="#38C98F" fill-opacity="0.5"/>
<rect x="606" y="87" width="22" height="380" fill="#38C98F" fill-opacity="0.5"/>
<rect x="551" y="87" width="55" height="36" fill="#38C98F" fill-opacity="0.5"/>
<rect x="468" y="113" width="83" height="10" fill="#38C98F" fill-opacity="0.5"/>
</svg>
