<svg width="754" height="640" viewBox="0 0 754 640" fill="none" xmlns="http://www.w3.org/2000/svg">
<rect width="754" height="640" fill="white"/>
<path d="M230 496H259" stroke="black"/>
<path d="M521.726 9.99999L526 629H231.62V531.978M230.551 539.74H144V426.341H230.017V143.502H451.737V216.181M230.017 496.662V427.194V426.418M451.737 143.114V10.3881H522.794" stroke="black" stroke-width="2"/>
<path d="M524 545.496H496.247M475.966 545.496H454.618M438.607 545.496H454.618M454.618 545.496V628.612M421.528 545.496H405.517M383.101 545.496H405.517M405.517 545.496V629M406.051 583.17H412.989M337.202 628.612V603.754M327.596 545.496H360.685H337.202V603.754M337.202 603.754H317.989M300.91 603.754H290.236M231.528 603.754H290.236M290.236 603.754V580.451M290.236 565.692V545.884H301.978H232.596M450.348 210.701H427.933M412.989 210.701H388.972M230.994 210.701H388.972M388.972 210.701V237.112M389.506 251.094V254.201M389.506 319.451H453.017V360.621V254.201M389.506 319.451V254.201M389.506 319.451H229.393M453.017 246.433V254.201M453.017 254.201H431.135M415.124 254.201H389.506M453.551 376.156V404.121M453.551 469.371V404.121M453.551 404.121H390.573M390.573 404.121V496.17M390.573 404.121H229.927H312.118V496.558M390.573 496.17H454.084V486.46M390.573 496.17H369.225M347.876 496.558H312.118M282.23 496.558H312.118M486.64 59.2277V25.0491M486.64 20H452.483V25.0491M486.64 20H520.798V25.0491M486.64 20V25.0491M486.64 25.0491H520.798M486.64 25.0491H452.483M520.798 25.0491V29.7098M452.483 25.0491V29.7098M452.483 29.7098H520.798M452.483 29.7098V34.3705M520.798 29.7098V34.3705M520.798 34.3705H452.483M520.798 34.3705V39.808M452.483 34.3705V39.808M452.483 39.808H520.798M452.483 39.808V44.4687M520.798 39.808V44.4687M520.798 44.4687H452.483M520.798 44.4687V49.1295M452.483 44.4687V49.1295M452.483 49.1295V59.2277H520.798V54.1786M452.483 49.1295H520.798M520.798 49.1295V54.1786M520.798 54.1786H451.949M228.86 444.513H187.764M144.534 483.353H145.067M187.764 483.353H229.393V478.692H144.534V474.031H229.393V468.594H144V463.933H229.393V459.272H144.534V454.612H229.927V449.174H144V444.513H145.067M187.764 483.353V444.513M187.764 483.353H145.067M187.764 444.513H145.067M145.067 444.513V483.353" stroke="black"/>
<rect x="404" y="185.601" width="33" height="17" fill="#FFD45F"/>
<path d="M409.965 200.096C409.154 200.096 408.386 199.968 407.661 199.712C406.946 199.445 406.37 199.093 405.933 198.656L406.493 197.744C406.855 198.117 407.341 198.427 407.949 198.672C408.567 198.917 409.239 199.04 409.965 199.04C410.893 199.04 411.602 198.837 412.093 198.432C412.594 198.027 412.845 197.483 412.845 196.8C412.845 196.117 412.599 195.573 412.109 195.168C411.629 194.763 410.866 194.56 409.821 194.56H409.021V193.712L412.477 189.376L412.637 189.824H406.397V188.8H413.597V189.616L410.141 193.952L409.581 193.584H410.013C411.357 193.584 412.359 193.883 413.021 194.48C413.693 195.077 414.029 195.845 414.029 196.784C414.029 197.413 413.879 197.979 413.581 198.48C413.282 198.981 412.829 199.376 412.221 199.664C411.623 199.952 410.871 200.096 409.965 200.096ZM415.46 197.056V196.224L421.396 188.8H422.676L416.788 196.224L416.164 196.032H425.172V197.056H415.46ZM421.78 200V197.056L421.812 196.032V193.44H422.932V200H421.78ZM430.642 200.096C429.746 200.096 428.973 199.968 428.322 199.712C427.682 199.456 427.186 199.088 426.834 198.608C426.493 198.117 426.322 197.541 426.322 196.88C426.322 196.24 426.488 195.696 426.818 195.248C427.16 194.789 427.65 194.437 428.29 194.192C428.941 193.947 429.725 193.824 430.642 193.824C431.549 193.824 432.328 193.947 432.978 194.192C433.629 194.437 434.125 194.789 434.466 195.248C434.818 195.696 434.994 196.24 434.994 196.88C434.994 197.541 434.818 198.117 434.466 198.608C434.114 199.088 433.613 199.456 432.962 199.712C432.312 199.968 431.538 200.096 430.642 200.096ZM430.642 199.12C431.634 199.12 432.408 198.917 432.962 198.512C433.528 198.107 433.81 197.557 433.81 196.864C433.81 196.171 433.528 195.627 432.962 195.232C432.408 194.827 431.634 194.624 430.642 194.624C429.65 194.624 428.877 194.827 428.322 195.232C427.768 195.627 427.49 196.171 427.49 196.864C427.49 197.557 427.768 198.107 428.322 198.512C428.877 198.917 429.65 199.12 430.642 199.12ZM430.642 193.712C431.517 193.712 432.2 193.531 432.69 193.168C433.181 192.805 433.426 192.32 433.426 191.712C433.426 191.072 433.17 190.576 432.658 190.224C432.157 189.861 431.485 189.68 430.642 189.68C429.8 189.68 429.128 189.861 428.626 190.224C428.125 190.576 427.874 191.067 427.874 191.696C427.874 192.315 428.114 192.805 428.594 193.168C429.085 193.531 429.768 193.712 430.642 193.712ZM430.642 194.48C429.81 194.48 429.101 194.368 428.514 194.144C427.938 193.92 427.496 193.6 427.186 193.184C426.877 192.757 426.722 192.251 426.722 191.664C426.722 191.045 426.882 190.517 427.202 190.08C427.533 189.632 427.992 189.291 428.578 189.056C429.165 188.821 429.853 188.704 430.642 188.704C431.432 188.704 432.12 188.821 432.706 189.056C433.304 189.291 433.768 189.632 434.098 190.08C434.429 190.517 434.594 191.045 434.594 191.664C434.594 192.251 434.44 192.757 434.13 193.184C433.821 193.6 433.368 193.92 432.77 194.144C432.184 194.368 431.474 194.48 430.642 194.48Z" fill="black"/>
<rect x="349" y="233.012" width="33" height="16" fill="#FFD45F"/>
<path d="M354.647 247.096C353.836 247.096 353.068 246.968 352.343 246.712C351.628 246.445 351.052 246.093 350.615 245.656L351.175 244.744C351.537 245.117 352.023 245.427 352.631 245.672C353.249 245.917 353.921 246.04 354.647 246.04C355.575 246.04 356.284 245.837 356.775 245.432C357.276 245.027 357.527 244.483 357.527 243.8C357.527 243.117 357.281 242.573 356.791 242.168C356.311 241.763 355.548 241.56 354.503 241.56H353.703V240.712L357.159 236.376L357.319 236.824H351.079V235.8H358.279V236.616L354.823 240.952L354.263 240.584H354.695C356.039 240.584 357.041 240.883 357.703 241.48C358.375 242.077 358.711 242.845 358.711 243.784C358.711 244.413 358.561 244.979 358.263 245.48C357.964 245.981 357.511 246.376 356.903 246.664C356.305 246.952 355.553 247.096 354.647 247.096ZM360.142 244.056V243.224L366.078 235.8H367.358L361.47 243.224L360.846 243.032H369.854V244.056H360.142ZM366.462 247V244.056L366.494 243.032V240.44H367.614V247H366.462ZM375.504 247.096C374.512 247.096 373.675 246.877 372.992 246.44C372.309 245.992 371.792 245.352 371.44 244.52C371.088 243.677 370.912 242.669 370.912 241.496C370.912 240.227 371.125 239.165 371.552 238.312C371.989 237.448 372.592 236.797 373.36 236.36C374.128 235.923 375.019 235.704 376.032 235.704C376.533 235.704 377.013 235.752 377.472 235.848C377.931 235.944 378.336 236.099 378.688 236.312L378.224 237.24C377.936 237.048 377.605 236.915 377.232 236.84C376.859 236.755 376.464 236.712 376.048 236.712C374.843 236.712 373.877 237.096 373.152 237.864C372.437 238.632 372.08 239.779 372.08 241.304C372.08 241.539 372.091 241.832 372.112 242.184C372.144 242.525 372.208 242.867 372.304 243.208L371.904 242.904C372.021 242.349 372.251 241.88 372.592 241.496C372.933 241.101 373.36 240.803 373.872 240.6C374.384 240.397 374.944 240.296 375.552 240.296C376.299 240.296 376.955 240.435 377.52 240.712C378.085 240.989 378.528 241.379 378.848 241.88C379.168 242.381 379.328 242.973 379.328 243.656C379.328 244.349 379.163 244.957 378.832 245.48C378.501 245.992 378.043 246.392 377.456 246.68C376.88 246.957 376.229 247.096 375.504 247.096ZM375.456 246.12C375.989 246.12 376.459 246.024 376.864 245.832C377.28 245.629 377.605 245.347 377.84 244.984C378.075 244.611 378.192 244.179 378.192 243.688C378.192 242.952 377.936 242.365 377.424 241.928C376.923 241.491 376.24 241.272 375.376 241.272C374.8 241.272 374.299 241.379 373.872 241.592C373.445 241.805 373.109 242.099 372.864 242.472C372.619 242.835 372.496 243.251 372.496 243.72C372.496 244.125 372.608 244.515 372.832 244.888C373.056 245.251 373.387 245.549 373.824 245.784C374.272 246.008 374.816 246.12 375.456 246.12Z" fill="black"/>
<rect x="407" y="260.996" width="31" height="16" fill="#FFD45F"/>
<path d="M412.872 275.096C412.061 275.096 411.293 274.968 410.568 274.712C409.853 274.445 409.277 274.093 408.84 273.656L409.4 272.744C409.763 273.117 410.248 273.427 410.856 273.672C411.475 273.917 412.147 274.04 412.872 274.04C413.8 274.04 414.509 273.837 415 273.432C415.501 273.027 415.752 272.483 415.752 271.8C415.752 271.117 415.507 270.573 415.016 270.168C414.536 269.763 413.773 269.56 412.728 269.56H411.928V268.712L415.384 264.376L415.544 264.824H409.304V263.8H416.504V264.616L413.048 268.952L412.488 268.584H412.92C414.264 268.584 415.267 268.883 415.928 269.48C416.6 270.077 416.936 270.845 416.936 271.784C416.936 272.413 416.787 272.979 416.488 273.48C416.189 273.981 415.736 274.376 415.128 274.664C414.531 274.952 413.779 275.096 412.872 275.096ZM418.367 272.056V271.224L424.303 263.8H425.583L419.695 271.224L419.071 271.032H428.079V272.056H418.367ZM424.687 275V272.056L424.719 271.032V268.44H425.839V275H424.687ZM430.309 275L435.141 264.312L435.493 264.824H428.565L429.157 264.264V266.92H428.021V263.8H436.245V264.616L431.557 275H430.309Z" fill="black"/>
<rect x="407" y="364.035" width="34" height="15" fill="#FFD45F"/>
<path d="M413.361 377.096C412.55 377.096 411.782 376.968 411.057 376.712C410.342 376.445 409.766 376.093 409.329 375.656L409.889 374.744C410.251 375.117 410.737 375.427 411.345 375.672C411.963 375.917 412.635 376.04 413.361 376.04C414.289 376.04 414.998 375.837 415.489 375.432C415.99 375.027 416.241 374.483 416.241 373.8C416.241 373.117 415.995 372.573 415.505 372.168C415.025 371.763 414.262 371.56 413.217 371.56H412.417V370.712L415.873 366.376L416.033 366.824H409.793V365.8H416.993V366.616L413.537 370.952L412.977 370.584H413.409C414.753 370.584 415.755 370.883 416.417 371.48C417.089 372.077 417.425 372.845 417.425 373.784C417.425 374.413 417.275 374.979 416.977 375.48C416.678 375.981 416.225 376.376 415.617 376.664C415.019 376.952 414.267 377.096 413.361 377.096ZM418.856 374.056V373.224L424.792 365.8H426.072L420.184 373.224L419.56 373.032H428.568V374.056H418.856ZM425.176 377V374.056L425.208 373.032V370.44H426.328V377H425.176ZM429.434 374.056V373.224L435.37 365.8H436.65L430.762 373.224L430.138 373.032H439.146V374.056H429.434ZM435.754 377V374.056L435.786 373.032V370.44H436.906V377H435.754Z" fill="black"/>
<rect x="340" y="474.834" width="33" height="15" fill="#FFD45F"/>
<path d="M345.698 488.096C344.887 488.096 344.119 487.968 343.394 487.712C342.679 487.445 342.103 487.093 341.666 486.656L342.226 485.744C342.589 486.117 343.074 486.427 343.682 486.672C344.301 486.917 344.973 487.04 345.698 487.04C346.626 487.04 347.335 486.837 347.826 486.432C348.327 486.027 348.578 485.483 348.578 484.8C348.578 484.117 348.333 483.573 347.842 483.168C347.362 482.763 346.599 482.56 345.554 482.56H344.754V481.712L348.21 477.376L348.37 477.824H342.13V476.8H349.33V477.616L345.874 481.952L345.314 481.584H345.746C347.09 481.584 348.093 481.883 348.754 482.48C349.426 483.077 349.762 483.845 349.762 484.784C349.762 485.413 349.613 485.979 349.314 486.48C349.015 486.981 348.562 487.376 347.954 487.664C347.357 487.952 346.605 488.096 345.698 488.096ZM351.193 485.056V484.224L357.129 476.8H358.409L352.521 484.224L351.897 484.032H360.905V485.056H351.193ZM357.513 488V485.056L357.545 484.032V481.44H358.665V488H357.513ZM366.427 488.096C365.563 488.096 364.795 487.872 364.123 487.424C363.451 486.965 362.923 486.315 362.539 485.472C362.155 484.619 361.963 483.595 361.963 482.4C361.963 481.205 362.155 480.187 362.539 479.344C362.923 478.491 363.451 477.84 364.123 477.392C364.795 476.933 365.563 476.704 366.427 476.704C367.291 476.704 368.059 476.933 368.731 477.392C369.403 477.84 369.931 478.491 370.315 479.344C370.71 480.187 370.907 481.205 370.907 482.4C370.907 483.595 370.71 484.619 370.315 485.472C369.931 486.315 369.403 486.965 368.731 487.424C368.059 487.872 367.291 488.096 366.427 488.096ZM366.427 487.04C367.089 487.04 367.665 486.864 368.155 486.512C368.646 486.149 369.03 485.627 369.307 484.944C369.585 484.251 369.723 483.403 369.723 482.4C369.723 481.397 369.585 480.555 369.307 479.872C369.03 479.179 368.646 478.656 368.155 478.304C367.665 477.941 367.089 477.76 366.427 477.76C365.787 477.76 365.217 477.941 364.715 478.304C364.214 478.656 363.825 479.179 363.547 479.872C363.27 480.555 363.131 481.397 363.131 482.4C363.131 483.403 363.27 484.251 363.547 484.944C363.825 485.627 364.214 486.149 364.715 486.512C365.217 486.864 365.787 487.04 366.427 487.04Z" fill="black"/>
<rect x="253" y="472.446" width="31" height="16" fill="#FFD45F"/>
<path d="M258.908 486.096C258.098 486.096 257.33 485.968 256.604 485.712C255.89 485.445 255.314 485.093 254.876 484.656L255.436 483.744C255.799 484.117 256.284 484.427 256.892 484.672C257.511 484.917 258.183 485.04 258.908 485.04C259.836 485.04 260.546 484.837 261.036 484.432C261.538 484.027 261.788 483.483 261.788 482.8C261.788 482.117 261.543 481.573 261.052 481.168C260.572 480.763 259.81 480.56 258.764 480.56H257.964V479.712L261.42 475.376L261.58 475.824H255.34V474.8H262.54V475.616L259.084 479.952L258.524 479.584H258.956C260.3 479.584 261.303 479.883 261.964 480.48C262.636 481.077 262.972 481.845 262.972 482.784C262.972 483.413 262.823 483.979 262.524 484.48C262.226 484.981 261.772 485.376 261.164 485.664C260.567 485.952 259.815 486.096 258.908 486.096ZM267.862 486.096C267.051 486.096 266.283 485.968 265.558 485.712C264.843 485.445 264.267 485.093 263.83 484.656L264.39 483.744C264.752 484.117 265.238 484.427 265.846 484.672C266.464 484.917 267.136 485.04 267.862 485.04C268.79 485.04 269.499 484.837 269.99 484.432C270.491 484.027 270.742 483.483 270.742 482.8C270.742 482.117 270.496 481.573 270.006 481.168C269.526 480.763 268.763 480.56 267.718 480.56H266.918V479.712L270.374 475.376L270.534 475.824H264.294V474.8H271.494V475.616L268.038 479.952L267.478 479.584H267.91C269.254 479.584 270.256 479.883 270.918 480.48C271.59 481.077 271.926 481.845 271.926 482.784C271.926 483.413 271.776 483.979 271.478 484.48C271.179 484.981 270.726 485.376 270.118 485.664C269.52 485.952 268.768 486.096 267.862 486.096ZM277.805 486.096C276.909 486.096 276.135 485.968 275.485 485.712C274.845 485.456 274.349 485.088 273.997 484.608C273.655 484.117 273.485 483.541 273.485 482.88C273.485 482.24 273.65 481.696 273.981 481.248C274.322 480.789 274.813 480.437 275.453 480.192C276.103 479.947 276.887 479.824 277.805 479.824C278.711 479.824 279.49 479.947 280.141 480.192C280.791 480.437 281.287 480.789 281.629 481.248C281.981 481.696 282.157 482.24 282.157 482.88C282.157 483.541 281.981 484.117 281.629 484.608C281.277 485.088 280.775 485.456 280.125 485.712C279.474 485.968 278.701 486.096 277.805 486.096ZM277.805 485.12C278.797 485.12 279.57 484.917 280.125 484.512C280.69 484.107 280.973 483.557 280.973 482.864C280.973 482.171 280.69 481.627 280.125 481.232C279.57 480.827 278.797 480.624 277.805 480.624C276.813 480.624 276.039 480.827 275.485 481.232C274.93 481.627 274.653 482.171 274.653 482.864C274.653 483.557 274.93 484.107 275.485 484.512C276.039 484.917 276.813 485.12 277.805 485.12ZM277.805 479.712C278.679 479.712 279.362 479.531 279.853 479.168C280.343 478.805 280.589 478.32 280.589 477.712C280.589 477.072 280.333 476.576 279.821 476.224C279.319 475.861 278.647 475.68 277.805 475.68C276.962 475.68 276.29 475.861 275.789 476.224C275.287 476.576 275.037 477.067 275.037 477.696C275.037 478.315 275.277 478.805 275.757 479.168C276.247 479.531 276.93 479.712 277.805 479.712ZM277.805 480.48C276.973 480.48 276.263 480.368 275.677 480.144C275.101 479.92 274.658 479.6 274.349 479.184C274.039 478.757 273.885 478.251 273.885 477.664C273.885 477.045 274.045 476.517 274.365 476.08C274.695 475.632 275.154 475.291 275.741 475.056C276.327 474.821 277.015 474.704 277.805 474.704C278.594 474.704 279.282 474.821 279.869 475.056C280.466 475.291 280.93 475.632 281.261 476.08C281.591 476.517 281.757 477.045 281.757 477.664C281.757 478.251 281.602 478.757 281.293 479.184C280.983 479.6 280.53 479.92 279.933 480.144C279.346 480.368 278.637 480.48 277.805 480.48Z" fill="black"/>
<rect x="416" y="469.834" width="33" height="16" fill="#FFD45F"/>
<path d="M422.249 483.096C421.439 483.096 420.671 482.968 419.945 482.712C419.231 482.445 418.655 482.093 418.217 481.656L418.777 480.744C419.14 481.117 419.625 481.427 420.233 481.672C420.852 481.917 421.524 482.04 422.249 482.04C423.177 482.04 423.887 481.837 424.377 481.432C424.879 481.027 425.129 480.483 425.129 479.8C425.129 479.117 424.884 478.573 424.393 478.168C423.913 477.763 423.151 477.56 422.105 477.56H421.305V476.712L424.761 472.376L424.921 472.824H418.681V471.8H425.881V472.616L422.425 476.952L421.865 476.584H422.297C423.641 476.584 424.644 476.883 425.305 477.48C425.977 478.077 426.313 478.845 426.313 479.784C426.313 480.413 426.164 480.979 425.865 481.48C425.567 481.981 425.113 482.376 424.505 482.664C423.908 482.952 423.156 483.096 422.249 483.096ZM427.745 480.056V479.224L433.681 471.8H434.961L429.073 479.224L428.449 479.032H437.457V480.056H427.745ZM434.065 483V480.056L434.097 479.032V476.44H435.217V483H434.065ZM438.276 483V482.184L442.932 477.624C443.358 477.208 443.678 476.845 443.892 476.536C444.105 476.216 444.249 475.917 444.324 475.64C444.398 475.363 444.436 475.101 444.436 474.856C444.436 474.205 444.212 473.693 443.764 473.32C443.326 472.947 442.676 472.76 441.812 472.76C441.15 472.76 440.564 472.861 440.052 473.064C439.55 473.267 439.118 473.581 438.756 474.008L437.94 473.304C438.377 472.792 438.937 472.397 439.62 472.12C440.302 471.843 441.065 471.704 441.908 471.704C442.665 471.704 443.321 471.827 443.876 472.072C444.43 472.307 444.857 472.653 445.156 473.112C445.465 473.571 445.62 474.109 445.62 474.728C445.62 475.091 445.566 475.448 445.46 475.8C445.364 476.152 445.182 476.525 444.916 476.92C444.66 477.304 444.281 477.741 443.78 478.232L439.508 482.424L439.188 481.976H446.132V483H438.276Z" fill="black"/>
<rect x="255" y="567.012" width="29" height="15" fill="#FFD45F"/>
<path d="M262.027 580.096C261.216 580.096 260.448 579.968 259.723 579.712C259.008 579.445 258.432 579.093 257.995 578.656L258.555 577.744C258.917 578.117 259.403 578.427 260.011 578.672C260.629 578.917 261.301 579.04 262.027 579.04C262.955 579.04 263.664 578.837 264.155 578.432C264.656 578.027 264.907 577.483 264.907 576.8C264.907 576.117 264.661 575.573 264.171 575.168C263.691 574.763 262.928 574.56 261.883 574.56H261.083V573.712L264.539 569.376L264.699 569.824H258.459V568.8H265.659V569.616L262.203 573.952L261.643 573.584H262.075C263.419 573.584 264.421 573.883 265.083 574.48C265.755 575.077 266.091 575.845 266.091 576.784C266.091 577.413 265.941 577.979 265.643 578.48C265.344 578.981 264.891 579.376 264.283 579.664C263.685 579.952 262.933 580.096 262.027 580.096ZM267.522 577.056V576.224L273.458 568.8H274.738L268.85 576.224L268.226 576.032H277.234V577.056H267.522ZM273.842 580V577.056L273.874 576.032V573.44H274.994V580H273.842ZM279.838 580V569.28L280.35 569.824H277.198V568.8H280.99V580H279.838Z" fill="black"/>
<rect x="357" y="551" width="31" height="15" fill="#FFD45F"/>
<path d="M362.176 564.096C361.365 564.096 360.597 563.968 359.872 563.712C359.157 563.445 358.581 563.093 358.144 562.656L358.704 561.744C359.067 562.117 359.552 562.427 360.16 562.672C360.779 562.917 361.451 563.04 362.176 563.04C363.104 563.04 363.813 562.837 364.304 562.432C364.805 562.027 365.056 561.483 365.056 560.8C365.056 560.117 364.811 559.573 364.32 559.168C363.84 558.763 363.077 558.56 362.032 558.56H361.232V557.712L364.688 553.376L364.848 553.824H358.608V552.8H365.808V553.616L362.352 557.952L361.792 557.584H362.224C363.568 557.584 364.571 557.883 365.232 558.48C365.904 559.077 366.24 559.845 366.24 560.784C366.24 561.413 366.091 561.979 365.792 562.48C365.493 562.981 365.04 563.376 364.432 563.664C363.835 563.952 363.083 564.096 362.176 564.096ZM367.671 561.056V560.224L373.607 552.8H374.887L368.999 560.224L368.375 560.032H377.383V561.056H367.671ZM373.991 564V561.056L374.023 560.032V557.44H375.143V564H373.991ZM381.946 564.096C381.146 564.096 380.383 563.968 379.658 563.712C378.933 563.445 378.357 563.093 377.93 562.656L378.49 561.744C378.842 562.117 379.322 562.427 379.93 562.672C380.549 562.917 381.215 563.04 381.93 563.04C382.879 563.04 383.599 562.832 384.09 562.416C384.591 561.989 384.842 561.435 384.842 560.752C384.842 560.272 384.725 559.861 384.49 559.52C384.266 559.168 383.882 558.896 383.338 558.704C382.794 558.512 382.047 558.416 381.098 558.416H378.714L379.29 552.8H385.418V553.824H379.754L380.346 553.264L379.85 557.968L379.258 557.392H381.354C382.485 557.392 383.391 557.531 384.074 557.808C384.757 558.085 385.247 558.475 385.546 558.976C385.855 559.467 386.01 560.043 386.01 560.704C386.01 561.333 385.861 561.909 385.562 562.432C385.263 562.944 384.815 563.349 384.218 563.648C383.621 563.947 382.863 564.096 381.946 564.096Z" fill="black"/>
<rect x="293" y="609" width="32" height="16" fill="#FFD45F"/>
<path d="M299.176 623.096C298.365 623.096 297.597 622.968 296.872 622.712C296.157 622.445 295.581 622.093 295.144 621.656L295.704 620.744C296.067 621.117 296.552 621.427 297.16 621.672C297.779 621.917 298.451 622.04 299.176 622.04C300.104 622.04 300.813 621.837 301.304 621.432C301.805 621.027 302.056 620.483 302.056 619.8C302.056 619.117 301.811 618.573 301.32 618.168C300.84 617.763 300.077 617.56 299.032 617.56H298.232V616.712L301.688 612.376L301.848 612.824H295.608V611.8H302.808V612.616L299.352 616.952L298.792 616.584H299.224C300.568 616.584 301.571 616.883 302.232 617.48C302.904 618.077 303.24 618.845 303.24 619.784C303.24 620.413 303.091 620.979 302.792 621.48C302.493 621.981 302.04 622.376 301.432 622.664C300.835 622.952 300.083 623.096 299.176 623.096ZM304.671 620.056V619.224L310.607 611.8H311.887L305.999 619.224L305.375 619.032H314.383V620.056H304.671ZM310.991 623V620.056L311.023 619.032V616.44H312.143V623H310.991ZM318.551 623.096C317.74 623.096 316.972 622.968 316.247 622.712C315.532 622.445 314.956 622.093 314.519 621.656L315.079 620.744C315.442 621.117 315.927 621.427 316.535 621.672C317.154 621.917 317.826 622.04 318.551 622.04C319.479 622.04 320.188 621.837 320.679 621.432C321.18 621.027 321.431 620.483 321.431 619.8C321.431 619.117 321.186 618.573 320.695 618.168C320.215 617.763 319.452 617.56 318.407 617.56H317.607V616.712L321.063 612.376L321.223 612.824H314.983V611.8H322.183V612.616L318.727 616.952L318.167 616.584H318.599C319.943 616.584 320.946 616.883 321.607 617.48C322.279 618.077 322.615 618.845 322.615 619.784C322.615 620.413 322.466 620.979 322.167 621.48C321.868 621.981 321.415 622.376 320.807 622.664C320.21 622.952 319.458 623.096 318.551 623.096Z" fill="black"/>
<rect x="235" y="501" width="273" height="30" fill="#FFBB00" fill-opacity="0.5"/>
<rect x="399" y="215" width="50" height="30" fill="#FFBB00" fill-opacity="0.5"/>
<rect x="468" y="76" width="41" height="425" fill="#FFBB00" fill-opacity="0.5"/>
<circle cx="112.5" cy="528.5" r="27.5" fill="#6EB9FF"/>
<path d="M86.624 535V534.184L91.28 529.624C91.7067 529.208 92.0267 528.845 92.24 528.536C92.4533 528.216 92.5973 527.917 92.672 527.64C92.7467 527.363 92.784 527.101 92.784 526.856C92.784 526.205 92.56 525.693 92.112 525.32C91.6747 524.947 91.024 524.76 90.16 524.76C89.4987 524.76 88.912 524.861 88.4 525.064C87.8987 525.267 87.4667 525.581 87.104 526.008L86.288 525.304C86.7253 524.792 87.2853 524.397 87.968 524.12C88.6507 523.843 89.4133 523.704 90.256 523.704C91.0133 523.704 91.6693 523.827 92.224 524.072C92.7787 524.307 93.2053 524.653 93.504 525.112C93.8133 525.571 93.968 526.109 93.968 526.728C93.968 527.091 93.9147 527.448 93.808 527.8C93.712 528.152 93.5307 528.525 93.264 528.92C93.008 529.304 92.6293 529.741 92.128 530.232L87.856 534.424L87.536 533.976H94.48V535H86.624ZM103.185 535.096C102.492 535.096 101.847 534.989 101.249 534.776C100.663 534.552 100.167 534.232 99.7613 533.816L100.433 533.144C100.796 533.485 101.207 533.741 101.665 533.912C102.124 534.072 102.615 534.152 103.137 534.152C103.799 534.152 104.385 534.008 104.897 533.72C105.42 533.421 105.831 533.021 106.129 532.52C106.428 532.008 106.577 531.432 106.577 530.792C106.577 530.152 106.428 529.581 106.129 529.08C105.831 528.568 105.42 528.168 104.897 527.88C104.385 527.592 103.799 527.448 103.137 527.448C102.615 527.448 102.124 527.533 101.665 527.704C101.207 527.864 100.796 528.115 100.433 528.456L99.7613 527.8C100.167 527.373 100.663 527.053 101.249 526.84C101.847 526.627 102.492 526.52 103.185 526.52C104.039 526.52 104.801 526.707 105.473 527.08C106.145 527.443 106.673 527.949 107.057 528.6C107.452 529.24 107.649 529.971 107.649 530.792C107.649 531.613 107.452 532.349 107.057 533C106.673 533.651 106.145 534.163 105.473 534.536C104.801 534.909 104.039 535.096 103.185 535.096ZM102.065 531.16V530.296H106.945V531.16H102.065ZM111.325 535V527.288L111.613 527.592H108.141V526.6H115.645V527.592H112.173L112.461 527.288V535H111.325ZM122.504 535V533.144L122.456 532.84V529.736C122.456 529.021 122.253 528.472 121.848 528.088C121.453 527.704 120.861 527.512 120.072 527.512C119.528 527.512 119.011 527.603 118.52 527.784C118.029 527.965 117.613 528.205 117.272 528.504L116.76 527.656C117.187 527.293 117.699 527.016 118.296 526.824C118.893 526.621 119.523 526.52 120.184 526.52C121.272 526.52 122.109 526.792 122.696 527.336C123.293 527.869 123.592 528.685 123.592 529.784V535H122.504ZM119.608 535.08C118.979 535.08 118.429 534.979 117.96 534.776C117.501 534.563 117.149 534.275 116.904 533.912C116.659 533.539 116.536 533.112 116.536 532.632C116.536 532.195 116.637 531.8 116.84 531.448C117.053 531.085 117.395 530.797 117.864 530.584C118.344 530.36 118.984 530.248 119.784 530.248H122.68V531.096H119.816C119.005 531.096 118.44 531.24 118.12 531.528C117.811 531.816 117.656 532.173 117.656 532.6C117.656 533.08 117.843 533.464 118.216 533.752C118.589 534.04 119.112 534.184 119.784 534.184C120.424 534.184 120.973 534.04 121.432 533.752C121.901 533.453 122.243 533.027 122.456 532.472L122.712 533.256C122.499 533.811 122.125 534.253 121.592 534.584C121.069 534.915 120.408 535.08 119.608 535.08ZM136.584 535L133.704 530.84L134.648 530.28L137.944 535H136.584ZM125.272 535L128.568 530.28L129.496 530.84L126.632 535H125.272ZM128.472 530.92L125.512 526.6H126.744L129.528 530.76L128.472 530.92ZM128.744 531.256V530.28H131.384V531.256H128.744ZM131.032 535V526.6H132.168V535H131.032ZM131.816 531.256V530.28H134.472V531.256H131.816ZM134.76 530.92L133.672 530.76L136.472 526.6H137.704L134.76 530.92Z" fill="black"/>
<circle cx="414.5" cy="37.5" r="27.5" fill="url(#paint0_linear_139_366)" fill-opacity="0.5"/>
<path d="M388.624 34V33.184L393.28 28.624C393.707 28.208 394.027 27.8453 394.24 27.536C394.453 27.216 394.597 26.9173 394.672 26.64C394.747 26.3627 394.784 26.1013 394.784 25.856C394.784 25.2053 394.56 24.6933 394.112 24.32C393.675 23.9467 393.024 23.76 392.16 23.76C391.499 23.76 390.912 23.8613 390.4 24.064C389.899 24.2667 389.467 24.5813 389.104 25.008L388.288 24.304C388.725 23.792 389.285 23.3973 389.968 23.12C390.651 22.8427 391.413 22.704 392.256 22.704C393.013 22.704 393.669 22.8267 394.224 23.072C394.779 23.3067 395.205 23.6533 395.504 24.112C395.813 24.5707 395.968 25.1093 395.968 25.728C395.968 26.0907 395.915 26.448 395.808 26.8C395.712 27.152 395.531 27.5253 395.264 27.92C395.008 28.304 394.629 28.7413 394.128 29.232L389.856 33.424L389.536 32.976H396.48V34H388.624ZM405.185 34.096C404.492 34.096 403.847 33.9893 403.249 33.776C402.663 33.552 402.167 33.232 401.761 32.816L402.433 32.144C402.796 32.4853 403.207 32.7413 403.665 32.912C404.124 33.072 404.615 33.152 405.137 33.152C405.799 33.152 406.385 33.008 406.897 32.72C407.42 32.4213 407.831 32.0213 408.129 31.52C408.428 31.008 408.577 30.432 408.577 29.792C408.577 29.152 408.428 28.5813 408.129 28.08C407.831 27.568 407.42 27.168 406.897 26.88C406.385 26.592 405.799 26.448 405.137 26.448C404.615 26.448 404.124 26.5333 403.665 26.704C403.207 26.864 402.796 27.1147 402.433 27.456L401.761 26.8C402.167 26.3733 402.663 26.0533 403.249 25.84C403.847 25.6267 404.492 25.52 405.185 25.52C406.039 25.52 406.801 25.7067 407.473 26.08C408.145 26.4427 408.673 26.9493 409.057 27.6C409.452 28.24 409.649 28.9707 409.649 29.792C409.649 30.6133 409.452 31.3493 409.057 32C408.673 32.6507 408.145 33.1627 407.473 33.536C406.801 33.9093 406.039 34.096 405.185 34.096ZM404.065 30.16V29.296H408.945V30.16H404.065ZM413.325 34V26.288L413.613 26.592H410.141V25.6H417.645V26.592H414.173L414.461 26.288V34H413.325ZM424.504 34V32.144L424.456 31.84V28.736C424.456 28.0213 424.253 27.472 423.848 27.088C423.453 26.704 422.861 26.512 422.072 26.512C421.528 26.512 421.011 26.6027 420.52 26.784C420.029 26.9653 419.613 27.2053 419.272 27.504L418.76 26.656C419.187 26.2933 419.699 26.016 420.296 25.824C420.893 25.6213 421.523 25.52 422.184 25.52C423.272 25.52 424.109 25.792 424.696 26.336C425.293 26.8693 425.592 27.6853 425.592 28.784V34H424.504ZM421.608 34.08C420.979 34.08 420.429 33.9787 419.96 33.776C419.501 33.5627 419.149 33.2747 418.904 32.912C418.659 32.5387 418.536 32.112 418.536 31.632C418.536 31.1947 418.637 30.8 418.84 30.448C419.053 30.0853 419.395 29.7973 419.864 29.584C420.344 29.36 420.984 29.248 421.784 29.248H424.68V30.096H421.816C421.005 30.096 420.44 30.24 420.12 30.528C419.811 30.816 419.656 31.1733 419.656 31.6C419.656 32.08 419.843 32.464 420.216 32.752C420.589 33.04 421.112 33.184 421.784 33.184C422.424 33.184 422.973 33.04 423.432 32.752C423.901 32.4533 424.243 32.0267 424.456 31.472L424.712 32.256C424.499 32.8107 424.125 33.2533 423.592 33.584C423.069 33.9147 422.408 34.08 421.608 34.08ZM438.584 34L435.704 29.84L436.648 29.28L439.944 34H438.584ZM427.272 34L430.568 29.28L431.496 29.84L428.632 34H427.272ZM430.472 29.92L427.512 25.6H428.744L431.528 29.76L430.472 29.92ZM430.744 30.256V29.28H433.384V30.256H430.744ZM433.032 34V25.6H434.168V34H433.032ZM433.816 30.256V29.28H436.472V30.256H433.816ZM436.76 29.92L435.672 29.76L438.472 25.6H439.704L436.76 29.92ZM392.176 54.096C391.365 54.096 390.597 53.968 389.872 53.712C389.157 53.4453 388.581 53.0933 388.144 52.656L388.704 51.744C389.067 52.1173 389.552 52.4267 390.16 52.672C390.779 52.9173 391.451 53.04 392.176 53.04C393.104 53.04 393.813 52.8373 394.304 52.432C394.805 52.0267 395.056 51.4827 395.056 50.8C395.056 50.1173 394.811 49.5733 394.32 49.168C393.84 48.7627 393.077 48.56 392.032 48.56H391.232V47.712L394.688 43.376L394.848 43.824H388.608V42.8H395.808V43.616L392.352 47.952L391.792 47.584H392.224C393.568 47.584 394.571 47.8827 395.232 48.48C395.904 49.0773 396.24 49.8453 396.24 50.784C396.24 51.4133 396.091 51.9787 395.792 52.48C395.493 52.9813 395.04 53.376 394.432 53.664C393.835 53.952 393.083 54.096 392.176 54.096ZM405.123 54.096C404.429 54.096 403.784 53.9893 403.187 53.776C402.6 53.552 402.104 53.232 401.699 52.816L402.371 52.144C402.733 52.4853 403.144 52.7413 403.603 52.912C404.061 53.072 404.552 53.152 405.075 53.152C405.736 53.152 406.323 53.008 406.835 52.72C407.357 52.4213 407.768 52.0213 408.067 51.52C408.365 51.008 408.515 50.432 408.515 49.792C408.515 49.152 408.365 48.5813 408.067 48.08C407.768 47.568 407.357 47.168 406.835 46.88C406.323 46.592 405.736 46.448 405.075 46.448C404.552 46.448 404.061 46.5333 403.603 46.704C403.144 46.864 402.733 47.1147 402.371 47.456L401.699 46.8C402.104 46.3733 402.6 46.0533 403.187 45.84C403.784 45.6267 404.429 45.52 405.123 45.52C405.976 45.52 406.739 45.7067 407.411 46.08C408.083 46.4427 408.611 46.9493 408.995 47.6C409.389 48.24 409.587 48.9707 409.587 49.792C409.587 50.6133 409.389 51.3493 408.995 52C408.611 52.6507 408.083 53.1627 407.411 53.536C406.739 53.9093 405.976 54.096 405.123 54.096ZM404.003 50.16V49.296H408.883V50.16H404.003ZM413.263 54V46.288L413.551 46.592H410.079V45.6H417.583V46.592H414.111L414.399 46.288V54H413.263ZM424.441 54V52.144L424.393 51.84V48.736C424.393 48.0213 424.191 47.472 423.785 47.088C423.391 46.704 422.799 46.512 422.009 46.512C421.465 46.512 420.948 46.6027 420.457 46.784C419.967 46.9653 419.551 47.2053 419.209 47.504L418.697 46.656C419.124 46.2933 419.636 46.016 420.233 45.824C420.831 45.6213 421.46 45.52 422.121 45.52C423.209 45.52 424.047 45.792 424.633 46.336C425.231 46.8693 425.529 47.6853 425.529 48.784V54H424.441ZM421.545 54.08C420.916 54.08 420.367 53.9787 419.897 53.776C419.439 53.5627 419.087 53.2747 418.841 52.912C418.596 52.5387 418.473 52.112 418.473 51.632C418.473 51.1947 418.575 50.8 418.777 50.448C418.991 50.0853 419.332 49.7973 419.801 49.584C420.281 49.36 420.921 49.248 421.721 49.248H424.617V50.096H421.753C420.943 50.096 420.377 50.24 420.057 50.528C419.748 50.816 419.593 51.1733 419.593 51.6C419.593 52.08 419.78 52.464 420.153 52.752C420.527 53.04 421.049 53.184 421.721 53.184C422.361 53.184 422.911 53.04 423.369 52.752C423.839 52.4533 424.18 52.0267 424.393 51.472L424.649 52.256C424.436 52.8107 424.063 53.2533 423.529 53.584C423.007 53.9147 422.345 54.08 421.545 54.08ZM438.522 54L435.642 49.84L436.586 49.28L439.882 54H438.522ZM427.21 54L430.506 49.28L431.434 49.84L428.57 54H427.21ZM430.41 49.92L427.45 45.6H428.682L431.466 49.76L430.41 49.92ZM430.682 50.256V49.28H433.322V50.256H430.682ZM432.97 54V45.6H434.106V54H432.97ZM433.754 50.256V49.28H436.41V50.256H433.754ZM436.698 49.92L435.61 49.76L438.41 45.6H439.642L436.698 49.92Z" fill="black"/>
<defs>
<linearGradient id="paint0_linear_139_366" x1="414" y1="10" x2="414" y2="65" gradientUnits="userSpaceOnUse">
<stop offset="0.451936" stop-color="#0084FF"/>
<stop offset="0.552928" stop-color="#FF0040"/>
</linearGradient>
</defs>
</svg>
